<svg width="28" height="28" viewBox="0 0 28 28" fill="none" xmlns="http://www.w3.org/2000/svg">
<g clip-path="url(#clip0_187_3649)">
<path d="M14 28C21.732 28 28 21.732 28 14C28 6.26801 21.732 0 14 0C6.26801 0 0 6.26801 0 14C0 21.732 6.26801 28 14 28Z" fill="#C13584"/>
<path d="M14 8.26128C15.8691 8.26128 16.0905 8.2684 16.8286 8.30206C17.5111 8.33321 17.8817 8.44725 18.1284 8.54309C18.4551 8.67008 18.6883 8.82175 18.9333 9.06669C19.1783 9.31169 19.3299 9.54485 19.4569 9.87158C19.5527 10.1183 19.6668 10.4889 19.6979 11.1714C19.7316 11.9095 19.7387 12.1309 19.7387 13.9999C19.7387 15.8691 19.7316 16.0904 19.6979 16.8286C19.6668 17.5111 19.5527 17.8817 19.4569 18.1284C19.3299 18.4551 19.1782 18.6883 18.9333 18.9332C18.6883 19.1782 18.4551 19.3299 18.1284 19.4568C17.8817 19.5527 17.5111 19.6667 16.8286 19.6979C16.0906 19.7315 15.8692 19.7387 14 19.7387C12.1308 19.7387 11.9094 19.7315 11.1714 19.6979C10.4889 19.6667 10.1183 19.5527 9.87158 19.4568C9.54485 19.3299 9.31169 19.1782 9.06675 18.9332C8.82181 18.6883 8.67008 18.4551 8.54309 18.1284C8.44725 17.8817 8.33321 17.5111 8.30206 16.8286C8.2684 16.0904 8.26128 15.8691 8.26128 13.9999C8.26128 12.1309 8.2684 11.9095 8.30206 11.1714C8.33321 10.4889 8.44725 10.1183 8.54309 9.87158C8.67008 9.54485 8.82175 9.31169 9.06675 9.06675C9.31169 8.82175 9.54485 8.67008 9.87158 8.54309C10.1183 8.44725 10.4889 8.33321 11.1714 8.30206C11.9095 8.2684 12.1309 8.26128 14 8.26128ZM14 7C12.0989 7 11.8605 7.00805 11.1139 7.04212C10.3689 7.07612 9.85997 7.19443 9.41471 7.3675C8.9544 7.54635 8.56403 7.78569 8.17489 8.17489C7.78569 8.56403 7.54635 8.9544 7.3675 9.41471C7.19443 9.85997 7.07612 10.3688 7.04212 11.1139C7.00805 11.8605 7 12.0989 7 13.9999C7 15.9011 7.00805 16.1394 7.04212 16.886C7.07612 17.6311 7.19443 18.14 7.3675 18.5852C7.54635 19.0455 7.78569 19.4359 8.17489 19.8251C8.56403 20.2142 8.9544 20.4536 9.41471 20.6324C9.85997 20.8055 10.3689 20.9238 11.1139 20.9578C11.8605 20.9919 12.0989 20.9999 14 20.9999C15.9011 20.9999 16.1395 20.9919 16.8861 20.9578C17.6311 20.9238 18.14 20.8055 18.5853 20.6324C19.0456 20.4536 19.436 20.2142 19.8251 19.8251C20.2142 19.4359 20.4536 19.0455 20.6325 18.5852C20.8056 18.14 20.9239 17.6311 20.9579 16.886C20.9919 16.1394 21 15.9011 21 13.9999C21 12.0989 20.9919 11.8605 20.9579 11.1139C20.9239 10.3688 20.8056 9.85997 20.6325 9.41471C20.4536 8.9544 20.2142 8.56403 19.8251 8.17489C19.436 7.78569 19.0456 7.54635 18.5853 7.3675C18.14 7.19443 17.6311 7.07612 16.8861 7.04212C16.1395 7.00805 15.9011 7 14 7Z" fill="white"/>
<path d="M14.0034 10.4087C12.0182 10.4087 10.4089 12.018 10.4089 14.0032C10.4089 15.9885 12.0182 17.5978 14.0034 17.5978C15.9887 17.5978 17.598 15.9885 17.598 14.0032C17.598 12.018 15.9887 10.4087 14.0034 10.4087ZM14.0034 16.3366C12.7148 16.3366 11.6701 15.2919 11.6701 14.0032C11.6701 12.7146 12.7148 11.6699 14.0034 11.6699C15.2921 11.6699 16.3368 12.7146 16.3368 14.0032C16.3368 15.2919 15.2921 16.3366 14.0034 16.3366Z" fill="white"/>
<path d="M18.5796 10.2646C18.5796 10.7285 18.2035 11.1046 17.7396 11.1046C17.2757 11.1046 16.8996 10.7285 16.8996 10.2646C16.8996 9.80069 17.2757 9.42456 17.7396 9.42456C18.2035 9.42456 18.5796 9.80069 18.5796 10.2646Z" fill="white"/>
</g>
<defs>
<clipPath id="clip0_187_3649">
<rect width="28" height="28" fill="white"/>
</clipPath>
</defs>
</svg>
