<svg width="28" height="28" viewBox="0 0 28 28" fill="none" xmlns="http://www.w3.org/2000/svg">
<ellipse cx="14" cy="13" rx="10" ry="9" fill="white"/>
<path fill-rule="evenodd" clip-rule="evenodd" d="M28 14C28 21.732 21.732 28 14 28C6.26801 28 0 21.732 0 14C0 6.26801 6.26801 0 14 0C21.732 0 28 6.26801 28 14ZM14.5017 10.3354C13.14 10.9018 10.4185 12.0741 6.33723 13.8522C5.67449 14.1157 5.32733 14.3736 5.29572 14.6257C5.2423 15.0517 5.77585 15.2195 6.50241 15.4479C6.60123 15.4791 6.70364 15.5113 6.80862 15.5454C7.52344 15.7778 8.48498 16.0496 8.98486 16.0603C9.43829 16.0701 9.94437 15.8832 10.5031 15.4995C14.3164 12.9255 16.2848 11.6244 16.4083 11.5964C16.4956 11.5766 16.6164 11.5517 16.6983 11.6245C16.7801 11.6972 16.7721 11.835 16.7634 11.872C16.7105 12.0973 14.6161 14.0444 13.5323 15.0521C13.1944 15.3662 12.9548 15.589 12.9058 15.6399C12.796 15.754 12.6841 15.8618 12.5767 15.9654C11.9126 16.6055 11.4146 17.0856 12.6042 17.8696C13.176 18.2463 13.6334 18.5578 14.0898 18.8686C14.5882 19.2081 15.0853 19.5467 15.7285 19.9683C15.8924 20.0758 16.0489 20.1873 16.2014 20.2959C16.7815 20.7095 17.3026 21.081 17.9464 21.0217C18.3205 20.9873 18.7069 20.6355 18.9031 19.5865C19.3669 17.1071 20.2785 11.7349 20.4892 9.52114C20.5078 9.32718 20.4846 9.07897 20.4659 8.97001C20.4472 8.86104 20.4083 8.70579 20.2666 8.59087C20.0989 8.45476 19.84 8.42606 19.7241 8.42809C19.1975 8.43738 18.3897 8.71829 14.5017 10.3354Z" fill="#40B3E0"/>
</svg>
