<svg width="69" height="56" fill="none" xmlns="http://www.w3.org/2000/svg"><path d="M0 44.475v-.337h.643l1.038.027c.207 0 .524 0 .957-.02.561-.021.89-.033.98-.033a4.622 4.622 0 011.504.18c.302.108.56.315.733.59.17.256.26.56.259.87-.001.31-.084.616-.242.884-.17.298-.413.547-.707.722-.373.217-.78.368-1.204.445.09.121.291.396.64.817l1.361 1.737c.39.483.617.755.684.81.028.023.061.04.096.05.118.024.238.033.358.027v.336a9.84 9.84 0 00-.722-.032c-.206 0-.474 0-.782.032-.235-.261-.627-.772-1.178-1.533a22.293 22.293 0 00-.812-1.055 34.368 34.368 0 00-1.081-1.271l.055-.16c.186 0 .328.018.424.018a2.19 2.19 0 001.495-.45 1.498 1.498 0 00.506-1.18 1.289 1.289 0 00-.436-1.023 1.984 1.984 0 00-1.326-.38 3.658 3.658 0 00-1.09.162c-.015.188-.027.365-.033.527 0 .05-.017.558-.038 1.522v2.323c0 .475 0 .938.02 1.386-.012.2.012.4.074.59a.37.37 0 00.203.138c.257.043.517.061.777.053v.336c-.51-.03-.98-.04-1.41-.04-.347 0-.929 0-1.746.04v-.336c.26.008.52-.01.777-.053a.342.342 0 00.194-.124c.062-.161.09-.334.082-.507 0-.074 0-.569.023-1.474v-2.42c0-.475 0-.938-.017-1.392.01-.2-.017-.4-.079-.59a.372.372 0 00-.2-.136 3.937 3.937 0 00-.78-.053m7.353 3.421a4.403 4.403 0 01.255-1.528c.182-.482.474-.914.853-1.259.389-.37.847-.657 1.346-.846a4.85 4.85 0 011.72-.295 5.1 5.1 0 011.62.242c.435.135.842.353 1.197.643a3.4 3.4 0 01.74.884c.146.262.256.544.325.838.083.337.124.684.122 1.032.015.551-.086 1.1-.297 1.608a3.865 3.865 0 01-.927 1.34 4.288 4.288 0 01-3.09 1.18 4.641 4.641 0 01-1.584-.266A3.217 3.217 0 018.39 50.7a3.42 3.42 0 01-.774-1.277 4.402 4.402 0 01-.264-1.474m1.122-.433c0 .338.036.676.105 1.008.056.303.143.6.259.884.155.394.386.753.677 1.056.265.274.585.488.937.628.366.137.753.205 1.143.2a2.744 2.744 0 001.512-.41c.431-.274.766-.678.96-1.155a4.34 4.34 0 00.317-1.719 4.966 4.966 0 00-.227-1.533 3.122 3.122 0 00-.372-.776 2.613 2.613 0 00-.556-.607 2.687 2.687 0 00-.834-.436 3.31 3.31 0 00-1.108-.18 2.99 2.99 0 00-1.51.371c-.429.245-.77.622-.974 1.076a3.732 3.732 0 00-.329 1.593zm7.374-2.917v-.319l1.303-.245a1 1 0 01.291.139c.123.124.237.257.34.398.322.434.618.887.887 1.356a39.34 39.34 0 011.07 1.961c.382-.569.774-1.18 1.164-1.852l1.164-1.898h.828v.141c-.194.212-.558.674-1.093 1.386a37.45 37.45 0 00-1.196 1.796 7.305 7.305 0 00-.517.884.897.897 0 00-.061.313v.4c0 .475 0 .938.017 1.386-.01.2.017.4.079.59a.36.36 0 00.2.139c.258.043.519.06.78.053v.336a30.337 30.337 0 00-1.524-.041c-.43 0-.954 0-1.629.04v-.335c.26.008.522-.01.78-.053a.326.326 0 00.188-.124 1.22 1.22 0 00.088-.507c0-.074 0-.57.02-1.475v-.61a6.903 6.903 0 00-.22-.425 25.13 25.13 0 00-.55-.884l-.347-.584c-.29-.445-.491-.764-.628-.952a5.11 5.11 0 00-.654-.779.814.814 0 00-.291-.182 1.583 1.583 0 00-.48-.053m6.361 6.973v-.357c.178.004.356-.006.532-.032a.487.487 0 00.195-.112c.105-.126.192-.267.256-.42.066-.129.29-.618.703-1.473l1.353-2.949c.145-.324.462-1.047.945-2.167h.352l2.31 5.248c.374.85.622 1.382.744 1.598a.548.548 0 00.224.242c.178.052.364.073.55.062v.357a21.16 21.16 0 00-1.178-.053l-1.745.053v-.357c.245.003.491-.009.735-.035a.324.324 0 00.175-.077.17.17 0 00.047-.124.796.796 0 00-.076-.295l-.666-1.6h-3.127l-.581 1.344a1.593 1.593 0 00-.155.53.176.176 0 00.041.119c.05.05.116.084.186.094.232.037.467.052.701.047v.357a27.62 27.62 0 00-1.367-.047c-.349 0-.733.014-1.146.047m2.513-2.934h2.731l-1.352-3.155-1.379 3.155zm6.524 2.934V51.3c.151-.061.294-.142.424-.241a.24.24 0 00.076-.121c.047-.206.07-.417.067-.628.015-.478.02-.761.02-.852v-2.813c0-.475 0-.938-.014-1.392.01-.2-.017-.4-.079-.59a.395.395 0 00-.2-.135 3.974 3.974 0 00-.783-.053v-.337c.873.03 1.425.042 1.635.042.21 0 .747 0 1.55-.042v.337c-.26-.009-.522.01-.78.053a.343.343 0 00-.191.123c-.062.162-.09.335-.082.508 0 .07 0 .566-.023 1.474v3.526c0 .366 0 .664.023.885.41.026.818.038 1.222.038a8.329 8.329 0 002.135-.189 2.59 2.59 0 00.125-.362l.215-.867h.363c-.077.519-.155 1.13-.232 1.83a4.937 4.937 0 01-.352.054h-.873l-3.199-.041c-.346 0-.698 0-1.053.04m8.603-7.072v-.337a86.8 86.8 0 001.72.033h.898l.85-.027h.258c.458-.017.916.046 1.352.186.308.105.576.306.764.575.187.268.286.59.28.92a2.035 2.035 0 01-.23.914 2.164 2.164 0 01-.668.773 2.913 2.913 0 01-.913.453c-.24.065-.488.096-.736.092a4.33 4.33 0 01-.748-.07l-.113-.393c.25.059.503.094.759.103.268 0 .533-.066.77-.191.248-.126.451-.326.582-.572a1.81 1.81 0 00.201-.85 1.68 1.68 0 00-.218-.82 1.268 1.268 0 00-.582-.56 2.266 2.266 0 00-.974-.188 3.874 3.874 0 00-1.105.177c-.032.368-.047.95-.047 1.736v2.636c0 .475 0 .938.015 1.386-.01.2.017.4.078.59a.37.37 0 00.201.138c.258.044.52.062.782.053v.337a36.033 36.033 0 00-1.471-.042c-.122 0-.687 0-1.693.042v-.337c.26.008.522-.01.78-.053a.364.364 0 00.194-.123c.06-.162.088-.335.082-.508 0-.073 0-.569.02-1.474v-3.812c.01-.2-.017-.4-.078-.59a.395.395 0 00-.201-.136 3.973 3.973 0 00-.782-.053m5.476 7.089v-.357c.178.004.356-.006.532-.032a.47.47 0 00.195-.112c.107-.125.193-.267.256-.42.067-.129.291-.618.704-1.473l1.352-2.949a158.5 158.5 0 00.946-2.167h.352l2.309 5.248c.374.85.622 1.382.745 1.598a.55.55 0 00.226.242c.178.052.363.073.547.062v.357a21.996 21.996 0 00-1.178-.053l-1.745.053v-.357a6.03 6.03 0 00.736-.035.348.348 0 00.177-.077.178.178 0 00.044-.124.796.796 0 00-.076-.295l-.663-1.6h-3.13l-.58 1.344a1.549 1.549 0 00-.158.53.166.166 0 00.044.119.29.29 0 00.183.094c.233.037.468.052.704.047v.357a27.828 27.828 0 00-1.37-.047c-.35 0-.73.014-1.146.047m2.516-2.934h2.728l-1.35-3.155-1.378 3.155zm6.09-4.163v-.337h.646l1.038.027c.204 0 .524 0 .957-.02.561-.021.887-.033.977-.033a4.643 4.643 0 011.507.18c.301.11.56.316.733.59.17.257.26.56.259.87a1.758 1.758 0 01-.245.884 1.98 1.98 0 01-.704.722c-.373.217-.78.368-1.204.445.09.121.291.396.637.817l1.364 1.737c.39.483.617.755.68.81a.29.29 0 00.1.05c.117.024.236.033.355.027v.336a9.768 9.768 0 00-.719-.032c-.206 0-.474 0-.785.032-.233-.261-.625-.772-1.178-1.533a18.053 18.053 0 00-.812-1.055A34.38 34.38 0 0056.5 47.72l.055-.16c.189 0 .328.018.427.018a2.178 2.178 0 001.492-.45 1.49 1.49 0 00.51-1.18 1.284 1.284 0 00-.44-1.023 1.97 1.97 0 00-1.323-.38 3.693 3.693 0 00-1.094.162c-.014.188-.023.365-.032.527 0 .05 0 .558-.038 1.522v2.323c0 .475 0 .938.024 1.386-.015.2.01.4.072.59a.36.36 0 00.201.138c.258.043.519.06.78.053v.336c-.512-.03-.983-.04-1.411-.04-.346 0-.928 0-1.745.04v-.336c.26.008.522-.01.78-.053a.351.351 0 00.194-.124c.06-.162.088-.334.082-.507 0-.074 0-.569.02-1.474v-3.812c.01-.2-.017-.4-.079-.59a.383.383 0 00-.2-.136 3.981 3.981 0 00-.782-.053m10.496 6.739v.336l-1.632-.042c-.11 0-.622 0-1.53.042v-.337c.261.008.522-.01.78-.053a.342.342 0 00.192-.123c.062-.162.09-.335.081-.508 0-.073 0-.569.024-1.474v-2.42c0-.475 0-.938-.018-1.392.01-.2-.017-.4-.078-.59a.372.372 0 00-.201-.136 3.937 3.937 0 00-.78-.053v-.336c.699.02 1.234.033 1.606.033.372 0 .887 0 1.556-.033v.336c-.26-.008-.52.01-.777.053a.316.316 0 00-.189.124 1.17 1.17 0 00-.087.508c0 .07 0 .566-.023 1.474v1.076c.253-.144.486-.321.692-.528l.684-.637 1.204-1.18c.465-.45.753-.74.872-.866v-.383c.428 0 .765.02 1.01.02.244 0 .546 0 .849-.02v.339a3.488 3.488 0 00-.693.044c-.125.03-.243.083-.349.156-.232.162-.581.457-1.061.885l-2.176 1.913 3.246 2.949c.285.273.583.532.893.775a.952.952 0 00.416.068v.324c-.355 0-.582-.02-.71-.02s-.413 0-.843.02c-.082-.08-.384-.362-.902-.843l-.558-.516-2.455-2.229-.125.068v1.014c0 .475 0 .938.023 1.386-.013.2.012.4.073.59.05.069.122.118.204.138.256.043.516.061.776.053M37.13 13.979h-1.542v28.76h1.541v-28.76zm-4.21 5.714h-1.552v23.045h1.553V19.693zm-1.096-4.871v1.082c-6.468 1.12-11.296 4.4-13.96 10.264-2.664 5.864-1.993 11.499 1.375 16.877-.564-.407-2.114-3.229-2.725-5.013a17.313 17.313 0 01-.901-5.705 17.051 17.051 0 011.044-5.661c2.707-7.527 9.47-11.204 15.161-11.832" fill="#312F2F"/><path d="M32.22 9.883h1.541v32.855h-.474V19.342H32.22V9.883zm3.016 32.855h-.489V6.876h1.545v6.74h-1.056v29.122z" fill="#312F2F"/><path d="M34.125 9.524h-.637V0h1.533v6.507h-.649v36.231h-.247V9.524zm3.359 6.575c3.464.666 6.69 2.17 9.197 4.567 4.342 4.148 6.107 9.199 5.357 15.037a16.984 16.984 0 01-2.748 7.227c-.035.053-.065.109-.096.162a.097.097 0 00.072-.041 16.828 16.828 0 003.45-8.15c.075-.548.113-1.103.168-1.654v-1.448l-.035-.256c-.11-.855-.171-1.72-.343-2.566-.759-3.72-2.64-6.858-5.444-9.473-2.589-2.412-6.05-3.904-9.578-4.558m-.442-.116l-.387-.058v1.18h.387V14.83zM24.864 54.606c0-.23 0-.428-.017-.608h.334l.015.384h.014a.597.597 0 01.558-.428.367.367 0 01.105 0v.333a.768.768 0 00-.125 0 .503.503 0 00-.33.135.516.516 0 00-.161.322.898.898 0 00-.018.165v1.041h-.36l-.015-1.344zm1.708.433a.65.65 0 00.193.498.632.632 0 00.499.177c.19.006.38-.028.558-.1l.064.254a1.702 1.702 0 01-.672.12.903.903 0 01-.718-.26.927.927 0 01-.273-.721.978.978 0 01.243-.738.952.952 0 01.702-.315.814.814 0 01.62.27.84.84 0 01.215.647v.168h-1.431zm1.076-.257a.52.52 0 00-.3-.531.502.502 0 00-.21-.043.578.578 0 00-.393.174.594.594 0 00-.168.4h1.07zm2.108 1.168l-.029-.248a.771.771 0 01-.616.295.555.555 0 01-.567-.331.574.574 0 01-.05-.229c0-.472.433-.731 1.21-.728v-.039a.413.413 0 00-.118-.34.4.4 0 00-.339-.11c-.185 0-.366.05-.526.144l-.081-.233c.2-.118.43-.178.663-.174a.685.685 0 01.574.209.706.706 0 01.19.587v.731c-.002.157.01.314.035.469l-.346-.003zm-.055-.997c-.398 0-.852.06-.852.44a.326.326 0 00.096.25.317.317 0 00.25.089.496.496 0 00.486-.327.379.379 0 00.02-.113v-.339zm1.498-1.866h-.367v2.863h.367v-2.863zm2.071 1.952a.651.651 0 00.193.498.634.634 0 00.499.177c.19.006.38-.028.558-.1l.061.254a1.68 1.68 0 01-.669.12.902.902 0 01-.718-.26.928.928 0 01-.273-.721.977.977 0 01.243-.738.95.95 0 01.702-.315.817.817 0 01.617.27.84.84 0 01.215.647c.004.056.004.112 0 .168H33.27zm1.076-.257a.518.518 0 00-.3-.531.5.5 0 00-.21-.043.578.578 0 00-.394.173.594.594 0 00-.17.401h1.074zm.939.802c.148.087.315.135.486.139.265 0 .39-.127.39-.295 0-.168-.102-.262-.376-.36-.36-.123-.532-.318-.532-.55 0-.316.262-.573.695-.573.173-.002.344.04.498.121l-.093.256a.812.812 0 00-.413-.111c-.215 0-.338.12-.338.265 0 .144.123.236.384.33.352.13.53.295.53.59 0 .342-.274.59-.754.59a1.197 1.197 0 01-.567-.133l.09-.269zm2.327-2.146v.56h.526v.269h-.526v1.052c0 .242.07.38.276.38a.868.868 0 00.213-.023l.014.265a.962.962 0 01-.323.047.532.532 0 01-.398-.147.727.727 0 01-.14-.51v-1.065h-.314v-.268h.314v-.477l.358-.083zm2.237 2.512l-.03-.248a.768.768 0 01-.616.295.557.557 0 01-.566-.332.579.579 0 01-.05-.228c0-.472.433-.731 1.212-.728v-.039a.417.417 0 00-.12-.34.404.404 0 00-.34-.11c-.183 0-.364.05-.523.144l-.084-.233c.201-.118.43-.178.663-.174a.686.686 0 01.576.207.706.706 0 01.192.59v.73a2.6 2.6 0 00.032.47l-.346-.004zm-.053-.996c-.401 0-.855.059-.855.439a.329.329 0 00.097.249.319.319 0 00.25.09.498.498 0 00.488-.327.379.379 0 00.02-.112v-.34zm1.554-1.516v.56h.526v.269h-.527v1.052c0 .242.073.38.277.38a.868.868 0 00.212-.023l.017.265a.978.978 0 01-.325.047.52.52 0 01-.396-.147.712.712 0 01-.142-.51v-1.065h-.312v-.268h.312v-.477l.357-.083zm1.3 1.601a.65.65 0 00.193.498.632.632 0 00.499.177c.19.006.38-.028.558-.1l.064.254a1.703 1.703 0 01-.672.12.903.903 0 01-.718-.26.927.927 0 01-.273-.721.976.976 0 01.243-.738.954.954 0 01.702-.315.815.815 0 01.62.27.839.839 0 01.214.647v.168h-1.43zm1.076-.257a.52.52 0 00-.3-.531.502.502 0 00-.21-.043.578.578 0 00-.393.174.593.593 0 00-.168.4h1.07z" fill="#312F2F"/></svg>