<svg width="99" height="80" fill="none" xmlns="http://www.w3.org/2000/svg"><path d="M0 63.535v-.48h.918l1.484.038c.295 0 .747 0 1.367-.03.801-.029 1.27-.046 1.4-.046a6.605 6.605 0 012.148.257c.432.154.8.45 1.047.843.244.367.373.8.37 1.242-.001.445-.12.882-.345 1.264a2.84 2.84 0 01-1.01 1.032 5.322 5.322 0 01-1.72.636c.129.173.415.564.914 1.167l1.945 2.48c.556.691.88 1.079.976 1.159.04.032.087.056.137.072.168.033.34.046.511.037v.48c-.39-.029-.735-.046-1.03-.046-.295 0-.678 0-1.118.047-.335-.374-.896-1.104-1.683-2.19a31.832 31.832 0 00-1.159-1.509 49.12 49.12 0 00-1.546-1.815l.08-.228c.265 0 .469.026.606.026a3.128 3.128 0 002.136-.645 2.166 2.166 0 00.723-1.685 1.842 1.842 0 00-.624-1.461 2.835 2.835 0 00-1.894-.544 5.34 5.34 0 00-1.558.232c-.021.27-.038.523-.046.754 0 .072-.025.796-.054 2.174v3.319c0 .678 0 1.34.029 1.98-.019.284.017.57.104.842a.527.527 0 00.29.198c.367.062.739.087 1.11.076v.48c-.727-.042-1.4-.06-2.015-.06-.494 0-1.325 0-2.493.06v-.48c.371.011.743-.014 1.11-.076a.49.49 0 00.278-.177c.088-.23.128-.477.116-.725 0-.105 0-.813.033-2.106V66.67c0-.678 0-1.34-.025-1.988a2.36 2.36 0 00-.112-.842.532.532 0 00-.286-.194A5.628 5.628 0 000 63.569m10.504 4.886a6.287 6.287 0 01.365-2.182 4.636 4.636 0 011.218-1.798 5.738 5.738 0 011.923-1.21 6.93 6.93 0 012.456-.42 7.284 7.284 0 012.314.345 5.066 5.066 0 011.712.918c.42.357.778.784 1.055 1.264.21.374.367.777.466 1.196.119.482.178.978.174 1.474a5.59 5.59 0 01-.424 2.299 5.524 5.524 0 01-1.325 1.913 6.127 6.127 0 01-4.412 1.685 6.627 6.627 0 01-2.265-.379 4.594 4.594 0 01-1.774-1.133 4.886 4.886 0 01-1.105-1.824 6.288 6.288 0 01-.378-2.106m1.603-.619c.002.484.052.967.15 1.44.08.434.204.857.37 1.264a4.64 4.64 0 00.968 1.508c.378.391.834.697 1.338.897a4.515 4.515 0 001.633.287 3.91 3.91 0 002.16-.586 3.535 3.535 0 001.371-1.65c.316-.78.47-1.615.453-2.456a7.096 7.096 0 00-.324-2.19 4.462 4.462 0 00-.532-1.109 3.737 3.737 0 00-.793-.867 3.841 3.841 0 00-1.193-.624 4.731 4.731 0 00-1.583-.257 4.27 4.27 0 00-2.156.531c-.613.35-1.1.889-1.392 1.538a5.33 5.33 0 00-.47 2.274zm10.533-4.166v-.455l1.862-.35c.148.044.288.11.415.198.176.177.339.367.486.57.46.62.883 1.266 1.268 1.937a59 59 0 011.529 2.8 47.96 47.96 0 001.662-2.645l1.662-2.712h1.184v.202c-.277.303-.798.963-1.563 1.98-.415.59-1.005 1.44-1.707 2.565a10.42 10.42 0 00-.74 1.263 1.28 1.28 0 00-.087.447v.573c0 .678 0 1.34.025 1.98-.013.285.025.57.112.842.07.098.171.168.287.198.368.062.74.087 1.113.076v.48a43.394 43.394 0 00-2.177-.059c-.615 0-1.363 0-2.327.059v-.48c.373.011.746-.014 1.114-.076a.464.464 0 00.27-.177c.093-.23.135-.477.125-.724 0-.106 0-.813.029-2.106v-.872a9.956 9.956 0 00-.316-.607 35.79 35.79 0 00-.785-1.264l-.495-.834c-.415-.636-.702-1.09-.897-1.36a7.293 7.293 0 00-.935-1.112 1.16 1.16 0 00-.416-.261 2.259 2.259 0 00-.685-.076m9.087 9.962v-.51c.254.007.508-.009.76-.046a.687.687 0 00.278-.16c.151-.18.275-.381.366-.598.095-.186.415-.885 1.005-2.106l1.932-4.212c.208-.464.661-1.496 1.35-3.096h.503l3.3 7.497c.534 1.213.889 1.974 1.063 2.283.07.146.181.267.32.346.255.073.52.103.785.088v.51c-.8-.05-1.361-.076-1.682-.076l-2.493.076v-.51c.35.005.702-.012 1.05-.05a.463.463 0 00.25-.11.243.243 0 00.067-.177 1.138 1.138 0 00-.108-.421l-.952-2.287h-4.466l-.831 1.92a2.277 2.277 0 00-.22.759.251.251 0 00.057.168.46.46 0 00.266.135c.332.052.667.075 1.002.067v.51a39.616 39.616 0 00-1.953-.067c-.499 0-1.047.02-1.637.067m3.59-4.191h3.901l-1.932-4.507-1.97 4.507zm9.319 4.191v-.388c.217-.087.42-.203.607-.345a.342.342 0 00.108-.173c.067-.294.1-.595.096-.897.02-.682.029-1.087.029-1.217v-4.019c0-.678 0-1.339-.021-1.988a2.358 2.358 0 00-.112-.842.564.564 0 00-.287-.194 5.677 5.677 0 00-1.118-.076v-.48c1.247.042 2.036.06 2.335.06.3 0 1.068 0 2.215-.06v.48a5.62 5.62 0 00-1.114.076.49.49 0 00-.274.177 1.79 1.79 0 00-.116.725c0 .1 0 .808-.033 2.106v5.037c0 .523 0 .948.033 1.264.586.038 1.167.055 1.745.055a11.895 11.895 0 003.05-.27 3.72 3.72 0 00.178-.518l.308-1.238h.52a65.917 65.917 0 00-.333 2.615 7.113 7.113 0 01-.503.076h-1.246l-4.57-.059c-.495 0-.998 0-1.505.06m12.29-10.106v-.48c1.036.028 1.855.044 2.456.047h1.284l1.213-.038h.37a5.645 5.645 0 011.932.265c.44.15.822.437 1.09.82.268.385.409.845.401 1.316a2.908 2.908 0 01-.328 1.305c-.227.44-.554.819-.955 1.104a4.162 4.162 0 01-1.305.648 3.846 3.846 0 01-1.051.131 6.19 6.19 0 01-1.068-.101l-.162-.56c.356.084.719.133 1.084.147a2.35 2.35 0 001.101-.274c.354-.179.644-.464.831-.817.193-.374.292-.79.287-1.213a2.4 2.4 0 00-.312-1.17 1.81 1.81 0 00-.83-.801 3.236 3.236 0 00-1.392-.27 5.53 5.53 0 00-1.58.253c-.045.527-.066 1.356-.066 2.481v3.766c0 .678 0 1.339.02 1.98-.012.285.026.57.113.842a.531.531 0 00.287.198c.37.062.743.087 1.117.075v.48a51.376 51.376 0 00-2.102-.058c-.174 0-.98 0-2.418.059v-.48c.373.01.746-.015 1.114-.076a.518.518 0 00.278-.177c.086-.231.126-.478.116-.725 0-.105 0-.813.03-2.106V64.66a2.36 2.36 0 00-.113-.842.565.565 0 00-.287-.194 5.686 5.686 0 00-1.117-.076m7.823 10.126v-.51c.255.007.51-.009.76-.046.105-.03.2-.085.28-.16.152-.178.275-.38.365-.598.095-.186.415-.885 1.005-2.106l1.932-4.212c.21-.464.661-1.496 1.35-3.096H71l3.3 7.497c.534 1.213.889 1.974 1.063 2.283.07.146.184.267.324.346a2.3 2.3 0 00.781.088v.51a31.377 31.377 0 00-1.682-.076l-2.493.076v-.51c.35.005.702-.012 1.05-.05a.496.496 0 00.254-.11.255.255 0 00.063-.177 1.138 1.138 0 00-.108-.421l-.948-2.287h-4.47l-.831 1.92c-.12.237-.196.494-.225.759a.235.235 0 00.063.168.413.413 0 00.261.135 5.64 5.64 0 001.006.067v.51a39.913 39.913 0 00-1.957-.067c-.499 0-1.043.02-1.637.067m3.594-4.191h3.897l-1.928-4.507-1.97 4.507zm8.699-5.948v-.48h.923l1.483.038c.29 0 .748 0 1.367-.03.802-.029 1.267-.046 1.396-.046a6.631 6.631 0 012.152.257c.431.157.8.453 1.047.843.242.367.371.8.37 1.242a2.512 2.512 0 01-.349 1.264 2.83 2.83 0 01-1.005 1.032 5.323 5.323 0 01-1.72.636c.128.173.415.564.91 1.167l1.948 2.48c.557.691.88 1.079.972 1.159.042.033.09.057.142.072.166.033.337.046.506.037v.48c-.39-.029-.73-.046-1.026-.046-.295 0-.677 0-1.122.047-.332-.374-.893-1.104-1.683-2.19a25.846 25.846 0 00-1.159-1.509 49.235 49.235 0 00-1.545-1.815l.079-.228c.27 0 .47.026.61.026a3.11 3.11 0 002.132-.645 2.157 2.157 0 00.727-1.685 1.833 1.833 0 00-.627-1.461 2.814 2.814 0 00-1.89-.544c-.53 0-1.056.078-1.563.232-.02.27-.033.523-.046.754 0 .072 0 .796-.054 2.174v3.319c0 .678 0 1.34.033 1.98-.02.284.015.57.104.842.07.097.172.167.287.198.368.061.74.087 1.113.076v.48a34.979 34.979 0 00-2.015-.06c-.494 0-1.325 0-2.493.06v-.48c.373.011.746-.014 1.114-.076a.502.502 0 00.278-.177c.087-.231.126-.478.117-.725 0-.105 0-.813.029-2.106v-5.445a2.36 2.36 0 00-.112-.842.548.548 0 00-.287-.194 5.686 5.686 0 00-1.118-.076m14.995 9.624v.48l-2.33-.059c-.159 0-.89 0-2.186.06v-.481c.372.01.745-.014 1.113-.076a.49.49 0 00.274-.177 1.77 1.77 0 00.117-.724c0-.106 0-.813.033-2.106v-3.459c0-.678 0-1.339-.025-1.988a2.358 2.358 0 00-.112-.842.531.531 0 00-.287-.194 5.613 5.613 0 00-1.113-.075v-.48c.997.029 1.761.046 2.293.046.532 0 1.267 0 2.223-.047v.48a5.632 5.632 0 00-1.11.076.452.452 0 00-.27.177 1.67 1.67 0 00-.124.725c0 .1 0 .808-.033 2.106v1.537c.361-.205.694-.459.989-.754l.976-.91 1.72-1.684a47.508 47.508 0 001.247-1.239v-.547c.61 0 1.092.03 1.441.03.35 0 .782 0 1.214-.03v.484a5.054 5.054 0 00-.99.063 1.456 1.456 0 00-.498.223c-.332.232-.83.653-1.516 1.264l-3.108 2.734 4.637 4.212c.406.39.832.76 1.275 1.107.189.077.392.11.594.097v.464c-.507 0-.83-.03-1.013-.03-.183 0-.59 0-1.205.03a138.65 138.65 0 00-1.288-1.205l-.798-.737-3.507-3.184-.178.096v1.45c0 .678 0 1.339.033 1.98-.019.284.016.57.104.842a.51.51 0 00.29.197 5.64 5.64 0 001.11.076M53.042 19.97H50.84v41.084h2.202V19.969zm-6.012 8.163h-2.22v32.921h2.22V28.133zm-1.567-6.959v1.546c-9.24 1.6-16.137 6.284-19.943 14.662-3.806 8.378-2.846 16.427 1.965 24.11-.806-.581-3.02-4.612-3.893-7.16a24.738 24.738 0 01-1.288-8.15 24.36 24.36 0 011.491-8.088c3.868-10.753 13.529-16.006 21.66-16.903" fill="#fff"/><path d="M46.028 14.119h2.202v46.935h-.677V27.631h-1.525V14.12zm4.309 46.935h-.698V9.823h2.206v9.629h-1.508v41.602z" fill="#fff"/><path d="M48.75 13.605h-.91V0h2.19v9.296h-.927v51.758h-.353V13.605zm4.799 9.393c4.948.952 9.556 3.1 13.138 6.524 6.203 5.927 8.725 13.142 7.653 21.482a24.264 24.264 0 01-3.926 10.324c-.05.076-.092.156-.138.232a.142.142 0 00.104-.06 24.038 24.038 0 004.928-11.642c.108-.783.162-1.575.241-2.362v-2.069l-.05-.366c-.158-1.222-.245-2.456-.49-3.665-1.085-5.315-3.773-9.797-7.778-13.533-3.698-3.445-8.642-5.577-13.682-6.512m-.632-.164l-.552-.084v1.685h.552v-1.601zM35.52 78.008c0-.328 0-.61-.025-.868h.478l.021.548h.02a.872.872 0 01.303-.435.853.853 0 01.495-.176c.05-.007.1-.007.15 0v.476a1.087 1.087 0 00-.179 0 .718.718 0 00-.472.193.736.736 0 00-.23.46 1.279 1.279 0 00-.025.236v1.487h-.515l-.02-1.921zm2.44.62a.93.93 0 00.276.712.905.905 0 00.712.252c.273.008.545-.04.798-.143l.091.362c-.305.122-.631.18-.96.173a1.287 1.287 0 01-1.026-.371 1.326 1.326 0 01-.39-1.032 1.394 1.394 0 01.348-1.053 1.358 1.358 0 011.002-.45 1.165 1.165 0 01.885.384 1.2 1.2 0 01.308.925v.24h-2.045zm1.537-.367a.741.741 0 00-.18-.578.721.721 0 00-.547-.243.826.826 0 00-.562.25.849.849 0 00-.24.571h1.529zm3.012 1.668l-.041-.354a1.1 1.1 0 01-.881.421.791.791 0 01-.615-.204.811.811 0 01-.266-.596c0-.674.619-1.045 1.728-1.04V78.1a.586.586 0 00-.392-.623.566.566 0 00-.26-.022c-.264 0-.524.072-.752.206l-.116-.332c.287-.169.615-.255.947-.249a.98.98 0 01.82.298 1.008 1.008 0 01.273.84v1.044c-.004.224.013.449.05.67l-.495-.004zm-.079-1.424c-.57 0-1.217.084-1.217.628a.464.464 0 00.302.46c.062.022.127.03.192.024a.706.706 0 00.421-.12.723.723 0 00.273-.348.541.541 0 00.03-.16v-.484zm2.14-2.667h-.524v4.09h.523v-4.09zm2.958 2.789a.93.93 0 00.277.713.903.903 0 00.712.252c.273.008.544-.04.798-.143l.087.362a2.392 2.392 0 01-.956.173 1.289 1.289 0 01-1.026-.371 1.325 1.325 0 01-.39-1.032 1.395 1.395 0 01.348-1.053 1.36 1.36 0 011.002-.45 1.165 1.165 0 01.882.386 1.2 1.2 0 01.306.923c.006.08.006.16 0 .24h-2.04zm1.538-.366a.741.741 0 00-.18-.578.723.723 0 00-.548-.243.825.825 0 00-.564.248.848.848 0 00-.242.573h1.534zm1.341 1.146c.212.124.45.192.694.198.379 0 .557-.181.557-.422 0-.24-.145-.374-.536-.513-.515-.177-.76-.455-.76-.788 0-.45.374-.817.993-.817a1.49 1.49 0 01.71.172l-.133.367a1.159 1.159 0 00-.59-.16c-.307 0-.482.173-.482.379 0 .206.175.337.549.472.503.185.756.42.756.842 0 .489-.39.843-1.076.843a1.71 1.71 0 01-.81-.19l.128-.383zm3.324-3.067v.8h.752v.384h-.752v1.503c0 .346.1.544.395.544.102.001.204-.01.303-.034l.021.38a1.376 1.376 0 01-.46.067.758.758 0 01-.57-.211 1.038 1.038 0 01-.2-.729v-1.52h-.448v-.384h.448v-.682l.511-.118zm3.196 3.588l-.042-.353a1.095 1.095 0 01-.88.42.797.797 0 01-.614-.204.816.816 0 01-.268-.596c0-.673.62-1.044 1.733-1.04V78.1a.593.593 0 00-.172-.485.576.576 0 00-.484-.16 1.468 1.468 0 00-.748.207l-.12-.333c.287-.167.614-.253.946-.248a.98.98 0 01.824.296 1.008 1.008 0 01.273.841v1.045c-.005.224.01.448.046.67l-.494-.005zm-.075-1.423c-.574 0-1.222.084-1.222.627a.468.468 0 00.303.46c.062.022.127.03.192.025a.712.712 0 00.423-.12.727.727 0 00.275-.348.543.543 0 00.029-.16v-.484zm2.218-2.165v.8h.753v.384h-.752v1.503c0 .346.103.544.394.544.102.001.204-.01.303-.034l.026.38a1.4 1.4 0 01-.466.067.742.742 0 01-.565-.211 1.017 1.017 0 01-.204-.729v-1.52h-.444v-.384h.444v-.682l.512-.118zm1.858 2.288a.93.93 0 00.276.712.905.905 0 00.713.252c.273.008.544-.04.797-.143l.092.362c-.305.122-.632.18-.96.173a1.288 1.288 0 01-1.026-.371 1.325 1.325 0 01-.39-1.032 1.394 1.394 0 01.348-1.053 1.358 1.358 0 011.002-.45 1.166 1.166 0 01.885.384 1.2 1.2 0 01.307.925v.24h-2.044zm1.537-.367a.745.745 0 00-.18-.578.723.723 0 00-.547-.243.825.825 0 00-.562.25.848.848 0 00-.24.571h1.53z" fill="#fff"/></svg>