<svg viewBox="0 0 24 24"  xmlns="http://www.w3.org/2000/svg" style="display:none">

	<symbol viewBox="0 0 24 24" id="phone">
		<path d="M15.3404 13.9815L14.9653 14.3545C14.9653 14.3545 14.0738 15.241 11.6402 12.8213C9.20668 10.4015 10.0982 9.51506 10.0982 9.51506L10.3344 9.2802C10.9163 8.70163 10.9711 7.77275 10.4635 7.09463L9.42503 5.70748C8.79671 4.86817 7.58255 4.75729 6.86237 5.47339L5.56976 6.75866C5.21266 7.11373 4.97336 7.57402 5.00238 8.08462C5.07662 9.39091 5.66765 12.2015 8.96559 15.4807C12.4629 18.9582 15.7445 19.0964 17.0863 18.9713C17.5108 18.9317 17.8799 18.7155 18.1774 18.4198L19.3473 17.2566C20.1369 16.4714 19.9143 15.1252 18.9039 14.576L17.3306 13.7207C16.6671 13.36 15.8589 13.466 15.3404 13.9815Z"/>
	</symbol>

	<symbol viewBox="0 0 24 24" id="phone-2">
		<path fill-rule="evenodd" clip-rule="evenodd" d="M12 0C5.37258 0 0 5.37258 0 12C0 18.6274 5.37258 24 12 24C18.6274 24 24 18.6274 24 12C24 5.37258 18.6274 0 12 0ZM14.9807 14.3518L15.3561 13.9793C15.8749 13.4643 16.6838 13.3585 17.3477 13.7188L18.9223 14.5731C19.9334 15.1217 20.1562 16.4663 19.366 17.2506L18.1952 18.4126C17.8975 18.708 17.5281 18.9239 17.1033 18.9635C15.7604 19.0884 12.4765 18.9504 8.9765 15.4768C5.67608 12.2013 5.08461 9.39385 5.01031 8.08902C4.98128 7.579 5.22075 7.11923 5.57812 6.76456L6.8717 5.48073C7.59242 4.76544 8.80749 4.87619 9.43629 5.71456L10.4755 7.10015C10.9836 7.77751 10.9287 8.70534 10.3464 9.28326L10.11 9.51785C10.11 9.51785 9.21777 10.4033 11.6531 12.8203C14.0885 15.2373 14.9807 14.3518 14.9807 14.3518Z"/>
	</symbol>

	<symbol viewBox="0 0 24 24" id="telegram">
		<path fill-rule="evenodd" clip-rule="evenodd" d="M24.5 12C24.5 18.6274 19.1274 24 12.5 24C5.87258 24 0.5 18.6274 0.5 12C0.5 5.37258 5.87258 0 12.5 0C19.1274 0 24.5 5.37258 24.5 12ZM12.93 8.85893C11.7629 9.3444 9.43015 10.3492 5.93191 11.8733C5.36385 12.0992 5.06628 12.3202 5.03919 12.5363C4.9934 12.9015 5.45073 13.0453 6.07349 13.2411C6.1582 13.2678 6.24598 13.2954 6.33596 13.3246C6.94866 13.5238 7.77284 13.7568 8.20131 13.766C8.58996 13.7744 9.02375 13.6142 9.50266 13.2853C12.7712 11.079 14.4584 9.96381 14.5643 9.93977C14.6391 9.92281 14.7426 9.90148 14.8128 9.96385C14.8829 10.0262 14.8761 10.1443 14.8686 10.176C14.8233 10.3691 13.0281 12.0381 12.0991 12.9018C11.8095 13.171 11.6041 13.362 11.5621 13.4056C11.468 13.5034 11.3721 13.5958 11.28 13.6846C10.7108 14.2333 10.2839 14.6448 11.3036 15.3168C11.7937 15.6397 12.1858 15.9067 12.577 16.1731C13.0042 16.4641 13.4303 16.7543 13.9816 17.1157C14.1221 17.2078 14.2562 17.3034 14.3869 17.3965C14.8841 17.751 15.3308 18.0694 15.8826 18.0186C16.2033 17.9891 16.5345 17.6876 16.7027 16.7884C17.1002 14.6632 17.8816 10.0585 18.0622 8.16098C18.0781 7.99473 18.0582 7.78197 18.0422 7.68858C18.0262 7.59518 17.9928 7.46211 17.8714 7.3636C17.7276 7.24694 17.5057 7.22234 17.4064 7.22408C16.955 7.23204 16.2626 7.47282 12.93 8.85893Z"/>
	</symbol>

	<symbol viewBox="0 0 24 24" id="whatsapp">
		<path fill-rule="evenodd" clip-rule="evenodd" d="M11.9965 0C5.38113 0 0 5.38264 0 11.9999C0 14.6242 0.846321 17.058 2.285 19.0335L0.789795 23.4919L5.40222 22.0178C7.2993 23.2735 9.56321 24 12.0035 24C18.6189 24 24 18.6172 24 12.0001C24 5.38285 18.6189 0.000198364 12.0035 0.000198364L11.9965 0ZM8.64642 6.09541C8.41374 5.53814 8.23739 5.51704 7.88489 5.5027C7.76486 5.49573 7.63111 5.48877 7.48282 5.48877C7.02422 5.48877 6.54473 5.62276 6.25552 5.91902C5.90302 6.27879 5.02841 7.11819 5.02841 8.8396C5.02841 10.561 6.28379 12.2259 6.45297 12.4588C6.62932 12.6914 8.90039 16.2752 12.4266 17.7357C15.1842 18.8786 16.0025 18.7726 16.63 18.6387C17.5468 18.4412 18.6965 17.7636 18.9857 16.9455C19.2749 16.127 19.2749 15.4286 19.1901 15.2805C19.1055 15.1323 18.8726 15.0479 18.5201 14.8713C18.1676 14.6949 16.4537 13.8483 16.1292 13.7354C15.8118 13.6156 15.5086 13.658 15.269 13.9967C14.9304 14.4693 14.599 14.9492 14.3309 15.2383C14.1193 15.464 13.7736 15.4923 13.4846 15.3722C13.0966 15.2102 12.0107 14.8289 10.6705 13.6367C9.63369 12.7127 8.92848 11.5629 8.72406 11.2172C8.51944 10.8646 8.70294 10.6598 8.86496 10.4694C9.04131 10.2506 9.21052 10.0955 9.38687 9.89084C9.56322 9.68636 9.66195 9.58045 9.77481 9.34053C9.89483 9.10778 9.81003 8.86787 9.72543 8.69147C9.64084 8.51507 8.93563 6.79365 8.64642 6.09541Z"/>
	</symbol>

	<symbol viewBox="0 0 24 24" id="calendar">
		<path fill-rule="evenodd" clip-rule="evenodd" d="M9.96131 3H14.0387C15.8915 2.99999 17.3332 2.99999 18.4557 3.15091C19.6004 3.30481 20.4878 3.62385 21.182 4.31802C21.8762 5.01219 22.1952 5.89959 22.3491 7.04429C22.5 8.1668 22.5 9.60845 22.5 11.4613V13.5387C22.5 15.3915 22.5 16.8332 22.3491 17.9557C22.1952 19.1004 21.8762 19.9878 21.182 20.682C20.4878 21.3762 19.6004 21.6952 18.4557 21.8491C17.3332 22 15.8915 22 14.0387 22H9.96129C8.10845 22 6.6668 22 5.54429 21.8491C4.39959 21.6952 3.51219 21.3762 2.81802 20.682C2.12385 19.9878 1.80481 19.1004 1.65091 17.9557C1.49999 16.8332 1.49999 15.3915 1.5 13.5387V11.4613C1.49999 9.60846 1.49999 8.1668 1.65091 7.04429C1.80481 5.89959 2.12385 5.01219 2.81802 4.31802C3.51219 3.62385 4.39959 3.30481 5.54429 3.15091C6.6668 2.99999 8.10846 2.99999 9.96131 3ZM5.67754 4.14199C4.64373 4.28098 4.00253 4.54772 3.52513 5.02513C3.04772 5.50253 2.78098 6.14373 2.64199 7.17754C2.50106 8.22573 2.5 9.60025 2.5 11.5V13.5C2.5 15.3998 2.50106 16.7743 2.64199 17.8225C2.78098 18.8563 3.04772 19.4975 3.52513 19.9749C4.00253 20.4523 4.64373 20.719 5.67754 20.858C6.72573 20.9989 8.10025 21 10 21H14C15.8998 21 17.2743 20.9989 18.3225 20.858C19.3563 20.719 19.9975 20.4523 20.4749 19.9749C20.9523 19.4975 21.219 18.8563 21.358 17.8225C21.4989 16.7743 21.5 15.3998 21.5 13.5V11.5C21.5 9.60025 21.4989 8.22573 21.358 7.17754C21.219 6.14373 20.9523 5.50253 20.4749 5.02513C19.9975 4.54772 19.3563 4.28098 18.3225 4.14199C17.2743 4.00106 15.8998 4 14 4H10C8.10025 4 6.72573 4.00106 5.67754 4.14199Z"/>
		<path fill-rule="evenodd" clip-rule="evenodd" d="M7 1.5C7.27614 1.5 7.5 1.72386 7.5 2V3.5C7.5 3.77614 7.27614 4 7 4C6.72386 4 6.5 3.77614 6.5 3.5V2C6.5 1.72386 6.72386 1.5 7 1.5Z"/>
		<path fill-rule="evenodd" clip-rule="evenodd" d="M17 1.5C17.2761 1.5 17.5 1.72386 17.5 2V3.5C17.5 3.77614 17.2761 4 17 4C16.7239 4 16.5 3.77614 16.5 3.5V2C16.5 1.72386 16.7239 1.5 17 1.5Z"/>
		<path fill-rule="evenodd" clip-rule="evenodd" d="M2 8.5C2 8.22386 2.22386 8 2.5 8H21.5C21.7761 8 22 8.22386 22 8.5C22 8.77614 21.7761 9 21.5 9H2.5C2.22386 9 2 8.77614 2 8.5Z"/>
		<path d="M18 16.5C18 17.0523 17.5523 17.5 17 17.5C16.4477 17.5 16 17.0523 16 16.5C16 15.9477 16.4477 15.5 17 15.5C17.5523 15.5 18 15.9477 18 16.5Z"/>
		<path d="M18 12.5C18 13.0523 17.5523 13.5 17 13.5C16.4477 13.5 16 13.0523 16 12.5C16 11.9477 16.4477 11.5 17 11.5C17.5523 11.5 18 11.9477 18 12.5Z"/>
		<path d="M13 16.5C13 17.0523 12.5523 17.5 12 17.5C11.4477 17.5 11 17.0523 11 16.5C11 15.9477 11.4477 15.5 12 15.5C12.5523 15.5 13 15.9477 13 16.5Z"/>
		<path d="M13 12.5C13 13.0523 12.5523 13.5 12 13.5C11.4477 13.5 11 13.0523 11 12.5C11 11.9477 11.4477 11.5 12 11.5C12.5523 11.5 13 11.9477 13 12.5Z"/>
		<path d="M8 16.5C8 17.0523 7.55228 17.5 7 17.5C6.44772 17.5 6 17.0523 6 16.5C6 15.9477 6.44772 15.5 7 15.5C7.55228 15.5 8 15.9477 8 16.5Z"/>
		<path d="M8 12.5C8 13.0523 7.55228 13.5 7 13.5C6.44772 13.5 6 13.0523 6 12.5C6 11.9477 6.44772 11.5 7 11.5C7.55228 11.5 8 11.9477 8 12.5Z"/>
	</symbol>

	<symbol viewBox="0 0 24 24" id="map">
		<path fill-rule="evenodd" clip-rule="evenodd" d="M3.5 10.1433C3.5 5.37814 7.29725 1.5 12 1.5C16.7028 1.5 20.5 5.37814 20.5 10.1433C20.5 12.4637 19.8379 14.9625 18.6648 17.1225C17.4926 19.2808 15.7887 21.1393 13.6747 22.1274C12.6118 22.6242 11.3882 22.6242 10.3253 22.1274C8.21131 21.1393 6.50739 19.2808 5.33525 17.1225C4.16213 14.9625 3.5 12.4637 3.5 10.1433ZM12 2.5C7.8662 2.5 4.5 5.91361 4.5 10.1433C4.5 12.285 5.11453 14.6208 6.21401 16.6453C7.31447 18.6716 8.87908 20.3476 10.7488 21.2215C11.5433 21.5928 12.4567 21.5928 13.2512 21.2215C15.1209 20.3476 16.6855 18.6716 17.786 16.6453C18.8855 14.6208 19.5 12.285 19.5 10.1433C19.5 5.91361 16.1338 2.5 12 2.5Z"/>
		<path fill-rule="evenodd" clip-rule="evenodd" d="M12 7.5C10.6193 7.5 9.5 8.61929 9.5 10C9.5 11.3807 10.6193 12.5 12 12.5C13.3807 12.5 14.5 11.3807 14.5 10C14.5 8.61929 13.3807 7.5 12 7.5ZM8.5 10C8.5 8.067 10.067 6.5 12 6.5C13.933 6.5 15.5 8.067 15.5 10C15.5 11.933 13.933 13.5 12 13.5C10.067 13.5 8.5 11.933 8.5 10Z"/>
	</symbol>

	<symbol viewBox="0 0 24 24" id="download">
		<path fill-rule="evenodd" clip-rule="evenodd" d="M2 14.8333C2.27614 14.8333 2.5 15.0571 2.5 15.3333C2.5 16.9187 2.50106 18.0575 2.61758 18.9242C2.73217 19.7765 2.95009 20.2903 3.32986 20.6701C3.70964 21.0498 4.22345 21.2678 5.07572 21.3823C5.94237 21.4989 7.08118 21.4999 8.66667 21.4999H15.3333C16.9188 21.4999 18.0576 21.4989 18.9243 21.3823C19.7766 21.2678 20.2904 21.0498 20.6701 20.6701C21.0499 20.2903 21.2678 19.7765 21.3824 18.9242C21.4989 18.0575 21.5 16.9187 21.5 15.3333C21.5 15.0571 21.7239 14.8333 22 14.8333C22.2761 14.8333 22.5 15.0571 22.5 15.3333V15.3715C22.5 16.9104 22.5 18.1165 22.3735 19.0574C22.244 20.0206 21.9738 20.7806 21.3772 21.3772C20.7807 21.9737 20.0207 22.2439 19.0575 22.3734C18.1165 22.4999 16.9105 22.4999 15.3716 22.4999H8.62841C7.08949 22.4999 5.88346 22.4999 4.94247 22.3734C3.97931 22.2439 3.2193 21.9737 2.62276 21.3772C2.02622 20.7806 1.75599 20.0206 1.6265 19.0574C1.49998 18.1165 1.49999 16.9104 1.5 15.3715L1.5 15.3333C1.5 15.0571 1.72386 14.8333 2 14.8333Z"/>
		<path fill-rule="evenodd" clip-rule="evenodd" d="M12 16.9443C12.1404 16.9443 12.2743 16.8853 12.369 16.7817L16.8134 11.9206C16.9998 11.7168 16.9856 11.4005 16.7818 11.2142C16.578 11.0279 16.2618 11.042 16.0754 11.2458L12.5 15.1565V1.99989C12.5 1.72375 12.2761 1.49989 12 1.49989C11.7238 1.49989 11.5 1.72375 11.5 1.99989V15.1565L7.92456 11.2458C7.73823 11.042 7.42196 11.0279 7.21816 11.2142C7.01436 11.4005 7.0002 11.7168 7.18653 11.9206L11.631 16.7817C11.7257 16.8853 11.8596 16.9443 12 16.9443Z"/>
	</symbol>

	<symbol viewBox="0 0 40 40" id="slider-arrow-prev">
		<path fill-rule="evenodd" clip-rule="evenodd" d="M18.6869 14.6464C18.8821 14.8417 18.8821 15.1583 18.6869 15.3536L14.5404 19.5H26.6666C26.9428 19.5 27.1666 19.7239 27.1666 20C27.1666 20.2761 26.9428 20.5 26.6666 20.5H14.5404L18.6869 24.6464C18.8821 24.8417 18.8821 25.1583 18.6869 25.3536C18.4916 25.5488 18.175 25.5488 17.9798 25.3536L12.9798 20.3536C12.7845 20.1583 12.7845 19.8417 12.9798 19.6464L17.9798 14.6464C18.175 14.4512 18.4916 14.4512 18.6869 14.6464Z"/>
	</symbol>

	<symbol viewBox="0 0 40 40" id="slider-arrow-next">
		<path fill-rule="evenodd" clip-rule="evenodd" d="M21.3131 14.6464C21.1179 14.8417 21.1179 15.1583 21.3131 15.3536L25.4596 19.5H13.3334C13.0572 19.5 12.8334 19.7239 12.8334 20C12.8334 20.2761 13.0572 20.5 13.3334 20.5H25.4596L21.3131 24.6464C21.1179 24.8417 21.1179 25.1583 21.3131 25.3536C21.5084 25.5488 21.825 25.5488 22.0202 25.3536L27.0202 20.3536C27.2155 20.1583 27.2155 19.8417 27.0202 19.6464L22.0202 14.6464C21.825 14.4512 21.5084 14.4512 21.3131 14.6464Z"/>
	</symbol>

	<symbol viewBox="0 0 24 24" id="close">
		<path fill-rule="evenodd" clip-rule="evenodd" d="M12 2.5C6.75329 2.5 2.5 6.75329 2.5 12C2.5 17.2467 6.75329 21.5 12 21.5C17.2467 21.5 21.5 17.2467 21.5 12C21.5 6.75329 17.2467 2.5 12 2.5ZM1.5 12C1.5 6.20101 6.20101 1.5 12 1.5C17.799 1.5 22.5 6.20101 22.5 12C22.5 17.799 17.799 22.5 12 22.5C6.20101 22.5 1.5 17.799 1.5 12Z"/>
		<path fill-rule="evenodd" clip-rule="evenodd" d="M6.64645 6.64645C6.84171 6.45118 7.15829 6.45118 7.35355 6.64645L12 11.2929L16.6464 6.64649C16.8417 6.45122 17.1583 6.45122 17.3536 6.64649C17.5488 6.84175 17.5488 7.15833 17.3536 7.35359L12.7071 12L17.3535 16.6464C17.5488 16.8417 17.5488 17.1583 17.3535 17.3535C17.1582 17.5488 16.8417 17.5488 16.6464 17.3535L12 12.7071L7.3536 17.3536C7.15833 17.5488 6.84175 17.5488 6.64649 17.3536C6.45123 17.1583 6.45123 16.8417 6.64649 16.6464L11.2929 12L6.64645 7.35355C6.45118 7.15829 6.45118 6.84171 6.64645 6.64645Z"/>
	</symbol>

	<symbol viewBox="0 0 36 40" id="play">
		<path d="M33.9094 17.2996C35.9881 18.4998 35.9881 21.5002 33.9094 22.7004L4.67716 39.5776C2.59842 40.7778 -1.04921e-07 39.2776 0 36.8772L1.47546e-06 3.12276C1.58038e-06 0.722436 2.59842 -0.77776 4.67716 0.422399L33.9094 17.2996Z"/>
	</symbol>

	<symbol viewBox="0 0 24 24" id="filter">
		<path fill-rule="evenodd" clip-rule="evenodd" d="M15.5 6.5C15.5 6.22386 15.7239 6 16 6H22C22.2761 6 22.5 6.22386 22.5 6.5C22.5 6.77614 22.2761 7 22 7H16C15.7239 7 15.5 6.77614 15.5 6.5Z"/>
		<path fill-rule="evenodd" clip-rule="evenodd" d="M1.5 6.5C1.5 6.22386 1.72386 6 2 6H6C6.27614 6 6.5 6.22386 6.5 6.5C6.5 6.77614 6.27614 7 6 7H2C1.72386 7 1.5 6.77614 1.5 6.5Z"/>
		<path fill-rule="evenodd" clip-rule="evenodd" d="M10 3.5C8.34315 3.5 7 4.84315 7 6.5C7 8.15685 8.34315 9.5 10 9.5C11.6569 9.5 13 8.15685 13 6.5C13 4.84315 11.6569 3.5 10 3.5ZM6 6.5C6 4.29086 7.79086 2.5 10 2.5C12.2091 2.5 14 4.29086 14 6.5C14 8.70914 12.2091 10.5 10 10.5C7.79086 10.5 6 8.70914 6 6.5Z"/>
		<path fill-rule="evenodd" clip-rule="evenodd" d="M17.5 17.5C17.5 17.2239 17.7239 17 18 17H22C22.2761 17 22.5 17.2239 22.5 17.5C22.5 17.7761 22.2761 18 22 18H18C17.7239 18 17.5 17.7761 17.5 17.5Z"/>
		<path fill-rule="evenodd" clip-rule="evenodd" d="M1.5 17.5C1.5 17.2239 1.72386 17 2 17H8C8.27614 17 8.5 17.2239 8.5 17.5C8.5 17.7761 8.27614 18 8 18H2C1.72386 18 1.5 17.7761 1.5 17.5Z"/>
		<path fill-rule="evenodd" clip-rule="evenodd" d="M14 14.5C12.3431 14.5 11 15.8431 11 17.5C11 19.1569 12.3431 20.5 14 20.5C15.6569 20.5 17 19.1569 17 17.5C17 15.8431 15.6569 14.5 14 14.5ZM10 17.5C10 15.2909 11.7909 13.5 14 13.5C16.2091 13.5 18 15.2909 18 17.5C18 19.7091 16.2091 21.5 14 21.5C11.7909 21.5 10 19.7091 10 17.5Z"/>
	</symbol>

	<symbol viewBox="0 0 24 24" id="filter-sort">
		<path fill-rule="evenodd" clip-rule="evenodd" d="M20.3481 10.484C20.1498 10.6762 19.8333 10.6713 19.641 10.4731L16.5 7.23387L16.5 18C16.5 18.2761 16.2761 18.5 16 18.5C15.7239 18.5 15.5 18.2761 15.5 18L15.5 7.23387L12.359 10.4731C12.1667 10.6713 11.8502 10.6762 11.6519 10.4839C11.4537 10.2917 11.4488 9.97517 11.6411 9.77693L15.641 5.65193C15.7352 5.55481 15.8647 5.5 16 5.5C16.1353 5.5 16.2648 5.55481 16.359 5.65193L20.3589 9.77693C20.5512 9.97517 20.5463 10.2917 20.3481 10.484Z"/>
		<path fill-rule="evenodd" clip-rule="evenodd" d="M12.3481 13.516C12.1498 13.3238 11.8333 13.3287 11.641 13.5269L8.5 16.7661L8.5 6C8.5 5.72386 8.27614 5.5 8 5.5C7.72386 5.5 7.5 5.72386 7.5 6L7.5 16.7661L4.35895 13.5269C4.16671 13.3287 3.85017 13.3238 3.65193 13.5161C3.45368 13.7083 3.44882 14.0248 3.64105 14.2231L7.64105 18.3481C7.73522 18.4452 7.86472 18.5 8 18.5C8.13528 18.5 8.26478 18.4452 8.35895 18.3481L12.3589 14.2231C12.5512 14.0248 12.5463 13.7083 12.3481 13.516Z"/>
	</symbol>

	<symbol viewBox="0 0 24 24" id="filter-sort-asc">
		<path fill-rule="evenodd" clip-rule="evenodd" d="M16.3481 10.484C16.1498 10.6762 15.8333 10.6713 15.641 10.4731L12.5 7.23387L12.5 18C12.5 18.2761 12.2761 18.5 12 18.5C11.7239 18.5 11.5 18.2761 11.5 18L11.5 7.23387L8.35895 10.4731C8.16671 10.6713 7.85017 10.6762 7.65193 10.4839C7.45368 10.2917 7.44882 9.97517 7.64105 9.77693L11.641 5.65193C11.7352 5.55481 11.8647 5.5 12 5.5C12.1353 5.5 12.2648 5.55481 12.359 5.65193L16.3589 9.77693C16.5512 9.97517 16.5463 10.2917 16.3481 10.484Z"/>
	</symbol>

	<symbol viewBox="0 0 24 24" id="filter-sort-desc">
		<path fill-rule="evenodd" clip-rule="evenodd" d="M16.3481 13.516C16.1498 13.3238 15.8333 13.3287 15.641 13.5269L12.5 16.7661L12.5 6C12.5 5.72386 12.2761 5.5 12 5.5C11.7239 5.5 11.5 5.72386 11.5 6L11.5 16.7661L8.35895 13.5269C8.16671 13.3287 7.85017 13.3238 7.65193 13.5161C7.45368 13.7083 7.44882 14.0248 7.64105 14.2231L11.641 18.3481C11.7352 18.4452 11.8647 18.5 12 18.5C12.1353 18.5 12.2648 18.4452 12.359 18.3481L16.3589 14.2231C16.5512 14.0248 16.5463 13.7083 16.3481 13.516Z"/>
	</symbol>

	<symbol viewBox="0 0 16 16" id="check">
		<path fill-rule="evenodd" clip-rule="evenodd" d="M13.35 4.64296C13.5472 4.83628 13.5504 5.15285 13.357 5.35004L7.11765 11.7142L2.64296 7.15004C2.44964 6.95285 2.45278 6.63628 2.64996 6.44296C2.84715 6.24964 3.16372 6.25278 3.35704 6.44996L7.11765 10.2858L12.643 4.64996C12.8363 4.45278 13.1529 4.44964 13.35 4.64296Z"/>
	</symbol>

	<symbol viewBox="0 0 24 24" id="time">
		<path fill-rule="evenodd" clip-rule="evenodd" d="M12 2.5C6.75329 2.5 2.5 6.75329 2.5 12C2.5 17.2467 6.75329 21.5 12 21.5C17.2467 21.5 21.5 17.2467 21.5 12C21.5 6.75329 17.2467 2.5 12 2.5ZM1.5 12C1.5 6.20101 6.20101 1.5 12 1.5C17.799 1.5 22.5 6.20101 22.5 12C22.5 17.799 17.799 22.5 12 22.5C6.20101 22.5 1.5 17.799 1.5 12Z"/>
		<path fill-rule="evenodd" clip-rule="evenodd" d="M12 7.5C12.2761 7.5 12.5 7.72386 12.5 8V11.7929L14.8536 14.1464C15.0488 14.3417 15.0488 14.6583 14.8536 14.8536C14.6583 15.0488 14.3417 15.0488 14.1464 14.8536L11.6464 12.3536C11.5527 12.2598 11.5 12.1326 11.5 12V8C11.5 7.72386 11.7239 7.5 12 7.5Z"/>
	</symbol>

	<symbol viewBox="0 0 24 24" id="walk">
		<path fill-rule="evenodd" clip-rule="evenodd" d="M12.5 2.5C11.3954 2.5 10.5 3.39543 10.5 4.5C10.5 5.60457 11.3954 6.5 12.5 6.5C13.6046 6.5 14.5 5.60457 14.5 4.5C14.5 3.39543 13.6046 2.5 12.5 2.5ZM9.5 4.5C9.5 2.84315 10.8431 1.5 12.5 1.5C14.1569 1.5 15.5 2.84315 15.5 4.5C15.5 6.15685 14.1569 7.5 12.5 7.5C10.8431 7.5 9.5 6.15685 9.5 4.5Z"/>
		<path fill-rule="evenodd" clip-rule="evenodd" d="M10.0981 17.0097C10.3689 17.0638 10.5445 17.3273 10.4903 17.598C10.1443 19.3282 9.19929 20.8809 7.82153 21.9831L7.31237 22.3904C7.09674 22.5629 6.78209 22.528 6.60958 22.3123C6.43708 22.0967 6.47204 21.782 6.68767 21.6095L7.19684 21.2022L7.50919 21.5926L7.19684 21.2022C8.39087 20.247 9.20985 18.9013 9.50973 17.4019C9.56388 17.1311 9.8273 16.9555 10.0981 17.0097Z"/>
		<path fill-rule="evenodd" clip-rule="evenodd" d="M10.9427 9.51683C11.1394 9.50617 11.3274 9.5 11.5 9.5C12.0375 9.5 12.6242 9.55988 13.1583 9.63658C14.5731 9.8398 15.6557 10.8861 16.0906 12.1907C16.2338 12.6202 16.6681 12.8817 17.1147 12.8073L18.9178 12.5068C19.1902 12.4614 19.4478 12.6454 19.4932 12.9178C19.5386 13.1902 19.3546 13.4478 19.0822 13.4932L17.2791 13.7937C16.3472 13.949 15.4407 13.4033 15.1419 12.5069C14.8091 11.5086 14.0042 10.7683 13.0161 10.6264C12.663 10.5757 12.2983 10.5347 11.9511 10.5142L11.6557 13.4675C11.5737 14.2878 11.5542 14.5658 11.6271 14.8205C11.7 15.0753 11.8637 15.3009 12.3672 15.9536L16.7963 21.6946C16.9649 21.9132 16.9244 22.2272 16.7058 22.3959C16.4872 22.5646 16.1732 22.5241 16.0045 22.3054L11.5755 16.5645C11.5566 16.5401 11.5381 16.516 11.5197 16.4923C11.0938 15.9407 10.7978 15.5574 10.6657 15.0957C10.5335 14.634 10.5819 14.1521 10.6516 13.4587C10.6546 13.4289 10.6576 13.3986 10.6607 13.368L10.9457 10.5185C8.97348 10.6543 7.5 12.4313 7.5 14.5C7.5 14.7761 7.27614 15 7 15C6.72386 15 6.5 14.7761 6.5 14.5C6.5 11.9701 8.33085 9.65838 10.9427 9.51683Z"/>
	</symbol>

	<symbol viewBox="0 0 32 32" id="arrow-to-up">
		<path fill-rule="evenodd" clip-rule="evenodd" d="M3.16669 15.9999C3.16669 23.0876 8.91237 28.8333 16 28.8333C23.0877 28.8333 28.8334 23.0876 28.8334 15.9999C28.8334 8.91226 23.0877 3.16658 16 3.16658C8.91237 3.16658 3.16669 8.91226 3.16669 15.9999ZM16 29.8333C8.36008 29.8333 2.16669 23.6399 2.16669 15.9999C2.16669 8.35998 8.36008 2.16658 16 2.16658C23.64 2.16658 29.8334 8.35998 29.8334 15.9999C29.8334 23.6399 23.64 29.8333 16 29.8333Z"/>
		<path fill-rule="evenodd" clip-rule="evenodd" d="M11.6464 15.0203C11.8417 15.2156 12.1583 15.2156 12.3536 15.0203L15.5 11.8739L15.5 21.3334C15.5 21.6096 15.7239 21.8334 16 21.8334C16.2761 21.8334 16.5 21.6096 16.5 21.3334L16.5 11.8739L19.6464 15.0203C19.8417 15.2156 20.1583 15.2156 20.3536 15.0203C20.5488 14.825 20.5488 14.5085 20.3536 14.3132L16.3536 10.3132C16.1583 10.1179 15.8417 10.1179 15.6464 10.3132L11.6464 14.3132C11.4512 14.5085 11.4512 14.825 11.6464 15.0203Z"/>
	</symbol>

	<symbol viewBox="0 0 24 24" id="download-image">
		<path fill-rule="evenodd" clip-rule="evenodd" d="M11.9609 1.5L12 1.5C12.2761 1.5 12.5 1.72386 12.5 2C12.5 2.27614 12.2761 2.5 12 2.5C9.62884 2.5 7.90077 2.50106 6.58026 2.6786C5.27414 2.8542 4.44187 3.19417 3.81802 3.81802C3.19417 4.44187 2.8542 5.27414 2.6786 6.58026C2.50106 7.90077 2.5 9.62884 2.5 12C2.5 14.3712 2.50106 16.0992 2.6786 17.4197C2.8542 18.7259 3.19417 19.5581 3.81802 20.182C4.44187 20.8058 5.27414 21.1458 6.58026 21.3214C7.90077 21.4989 9.62884 21.5 12 21.5C14.3712 21.5 16.0992 21.4989 17.4197 21.3214C18.7259 21.1458 19.5581 20.8058 20.182 20.182C20.8058 19.5581 21.1458 18.7259 21.3214 17.4197C21.4989 16.0992 21.5 14.3712 21.5 12C21.5 11.7239 21.7239 11.5 22 11.5C22.2761 11.5 22.5 11.7239 22.5 12V12.0392C22.5 14.363 22.5 16.1582 22.3125 17.553C22.122 18.97 21.7297 20.0485 20.8891 20.8891C20.0485 21.7297 18.97 22.122 17.553 22.3125C16.1582 22.5 14.363 22.5 12.0392 22.5H11.9608C9.63696 22.5 7.84182 22.5 6.44702 22.3125C5.03 22.122 3.95153 21.7297 3.11091 20.8891C2.2703 20.0485 1.87803 18.97 1.68752 17.553C1.49999 16.1582 1.49999 14.363 1.5 12.0391V11.9609C1.49999 9.63697 1.49999 7.84183 1.68752 6.44702C1.87803 5.03 2.2703 3.95153 3.11091 3.11091C3.95153 2.2703 5.03 1.87803 6.44702 1.68752C7.84183 1.49999 9.63697 1.49999 11.9609 1.5Z"/>
		<path fill-rule="evenodd" clip-rule="evenodd" d="M6.53894 11.4254C5.86886 10.7553 4.79401 10.7195 4.08084 11.3436L2.32926 12.8762C2.12144 13.058 1.80556 13.037 1.62372 12.8291C1.44188 12.6213 1.46294 12.3054 1.67076 12.1236L3.42234 10.591C4.53171 9.62029 6.2037 9.67596 7.24605 10.7183L11.5358 15.008C12.0512 15.5235 12.8625 15.5937 13.4589 15.1746L13.7571 14.965C15.0921 14.0269 16.8982 14.1356 18.111 15.2271L21.3345 18.1282C21.5397 18.313 21.5564 18.6291 21.3717 18.8344C21.1869 19.0396 20.8708 19.0563 20.6655 18.8715L17.442 15.9704C16.5757 15.1907 15.2856 15.1131 14.3321 15.7832L14.0339 15.9928C13.04 16.6913 11.6877 16.5742 10.8287 15.7151L6.53894 11.4254Z"/>
		<path fill-rule="evenodd" clip-rule="evenodd" d="M17 1.5C17.2761 1.5 17.5 1.72386 17.5 2V9.79289L19.6464 7.64645C19.8417 7.45118 20.1583 7.45118 20.3536 7.64645C20.5488 7.84171 20.5488 8.15829 20.3536 8.35355L17.3536 11.3536C17.1583 11.5488 16.8417 11.5488 16.6464 11.3536L13.6464 8.35355C13.4512 8.15829 13.4512 7.84171 13.6464 7.64645C13.8417 7.45118 14.1583 7.45118 14.3536 7.64645L16.5 9.79289V2C16.5 1.72386 16.7239 1.5 17 1.5Z"/>
	</symbol>

</svg>