<svg width="69" height="56" viewBox="0 0 69 56" fill="none" xmlns="http://www.w3.org/2000/svg">
<path d="M0 44.4746V44.1385H0.642765L1.68108 44.165C1.88758 44.165 2.2046 44.165 2.63796 44.1444C3.19929 44.1238 3.52794 44.112 3.6181 44.112C4.12563 44.0888 4.63349 44.1496 5.12177 44.2918C5.42437 44.3996 5.68248 44.6072 5.8547 44.8815C6.02535 45.1384 6.11557 45.4416 6.11355 45.7513C6.11293 46.0628 6.02953 46.3683 5.87215 46.6359C5.70196 46.9344 5.4585 47.1833 5.1654 47.3582C4.79214 47.5754 4.38486 47.726 3.9613 47.8034C4.05147 47.9243 4.25214 48.1985 4.60116 48.6202L5.96232 50.3568C6.35205 50.8404 6.5789 51.1116 6.6458 51.1676C6.67442 51.1903 6.70698 51.2073 6.74178 51.2178C6.85955 51.2411 6.97965 51.25 7.09951 51.2443V51.5804C6.82612 51.5598 6.58472 51.548 6.37822 51.548C6.17172 51.548 5.90415 51.548 5.59585 51.5804C5.36124 51.319 4.96859 50.8079 4.41792 50.0472C4.10963 49.6246 3.83915 49.2728 3.60647 48.9917C3.22838 48.5229 2.86773 48.1071 2.52453 47.7209L2.57979 47.5617C2.76593 47.5617 2.90844 47.5794 3.00442 47.5794C3.54025 47.6181 4.07168 47.4578 4.49937 47.1283C4.66483 46.9821 4.79609 46.8004 4.88362 46.5964C4.97116 46.3924 5.01278 46.1712 5.00544 45.9489C5.01398 45.756 4.97914 45.5636 4.90356 45.3864C4.82798 45.2091 4.71363 45.0516 4.56917 44.9257C4.18535 44.644 3.71546 44.5092 3.24292 44.5454C2.87347 44.5447 2.50595 44.5994 2.15225 44.7076C2.13771 44.8963 2.12607 45.0732 2.12025 45.2353C2.12025 45.2855 2.1028 45.7926 2.08244 46.7567V49.0801C2.08244 49.5548 2.08244 50.0177 2.1028 50.4659C2.08975 50.6654 2.11443 50.8655 2.17551 51.0556C2.22583 51.124 2.29766 51.1728 2.37911 51.1942C2.63564 51.2374 2.89572 51.2552 3.15566 51.2473V51.5834C2.64668 51.5539 2.17552 51.5421 1.74507 51.5421C1.39896 51.5421 0.817274 51.5421 0 51.5834V51.2473C0.259938 51.2552 0.520017 51.2374 0.776551 51.1942C0.853622 51.1769 0.922448 51.1331 0.971421 51.0703C1.03341 50.909 1.06116 50.7362 1.05286 50.5632C1.05286 50.4895 1.05285 49.9942 1.07612 49.089V46.6683C1.07612 46.1936 1.07612 45.7307 1.05867 45.2766C1.0684 45.0768 1.04178 44.8769 0.980146 44.6869C0.929951 44.6204 0.859349 44.5727 0.779462 44.5513C0.521978 44.5078 0.260908 44.49 0 44.4982" fill="#312F2F"/>
<path d="M7.35254 47.9185C7.34701 47.398 7.43369 46.8807 7.60848 46.3912C7.78966 45.9088 8.08182 45.4772 8.46066 45.1322C8.8498 44.7625 9.30754 44.4749 9.80728 44.286C10.3583 44.0846 10.9404 43.9847 11.5262 43.9912C12.0754 43.9839 12.6223 44.0655 13.1462 44.2329C13.5825 44.3675 13.9893 44.5857 14.3444 44.8757C14.639 45.1253 14.8889 45.4246 15.0832 45.7602C15.2304 46.0223 15.3401 46.3043 15.4089 46.5976C15.4924 46.935 15.5334 47.2817 15.5311 47.6296C15.5464 48.1812 15.4451 48.7297 15.2339 49.2383C15.0227 49.7468 14.7065 50.2037 14.3066 50.578C13.4715 51.3699 12.3608 51.794 11.2179 51.7574C10.6784 51.7619 10.1422 51.6721 9.63277 51.4921C9.16413 51.3281 8.73913 51.0566 8.39085 50.6989C8.04283 50.3367 7.77857 49.9007 7.61721 49.4222C7.44551 48.9501 7.35596 48.4512 7.35254 47.948M8.4752 47.5146C8.47595 47.8535 8.51104 48.1914 8.57991 48.523C8.63576 48.8261 8.72251 49.1225 8.83876 49.4075C8.99444 49.8009 9.22468 50.1595 9.51643 50.4631C9.78144 50.737 10.1006 50.951 10.4529 51.0911C10.8187 51.228 11.2061 51.2959 11.596 51.2916C12.1285 51.3051 12.6535 51.1628 13.1084 50.8817C13.539 50.6069 13.8744 50.2029 14.0681 49.7259C14.289 49.181 14.3969 48.5959 14.3852 48.007C14.3902 47.487 14.3137 46.9694 14.1583 46.4738C14.0704 46.199 13.9451 45.938 13.786 45.6983C13.6337 45.4674 13.4462 45.2624 13.2305 45.091C12.9795 44.8972 12.697 44.7495 12.3958 44.6546C12.039 44.5319 11.6644 44.4711 11.2877 44.4747C10.7612 44.4631 10.2408 44.5912 9.77819 44.8462C9.34926 45.0914 9.00812 45.4682 8.80386 45.9224C8.57879 46.4217 8.46651 46.9657 8.4752 47.5146Z" fill="#312F2F"/>
<path d="M15.8482 44.5986V44.2801L17.1512 44.0354C17.2548 44.0655 17.353 44.1123 17.442 44.174C17.5653 44.2977 17.679 44.4308 17.7823 44.572C18.1041 45.006 18.4003 45.4589 18.6694 45.9283C19.0039 46.5003 19.3616 47.1519 19.7397 47.889C20.1207 47.32 20.5134 46.7097 20.9031 46.0374L22.0665 44.1386H22.8954V44.2801C22.7015 44.4924 22.337 44.9543 21.8018 45.6659C21.511 46.0787 21.098 46.6743 20.6064 47.4615C20.4135 47.7436 20.2405 48.0392 20.0887 48.3461C20.0499 48.4456 20.0292 48.5515 20.0276 48.6586V49.0596C20.0276 49.5343 20.0276 49.9972 20.0451 50.4454C20.0358 50.6451 20.0624 50.8449 20.1236 51.0351C20.1727 51.1034 20.2436 51.1523 20.3243 51.1736C20.5818 51.2171 20.8429 51.2349 21.1038 51.2267V51.5628C20.5221 51.5333 20.0102 51.5216 19.5797 51.5216C19.1493 51.5216 18.6258 51.5216 17.951 51.5628V51.2267C18.2119 51.2347 18.473 51.217 18.7305 51.1736C18.806 51.1564 18.873 51.1125 18.9195 51.0498C18.9844 50.8891 19.0141 50.7161 19.0068 50.5427C19.0068 50.4689 19.0068 49.9736 19.0271 49.0684V48.4581C18.9515 48.2989 18.8788 48.1632 18.8061 48.0335C18.7334 47.9038 18.5734 47.6473 18.2564 47.149L17.9103 46.5652C17.6194 46.12 17.4188 45.8015 17.2821 45.6128C17.0901 45.3319 16.8709 45.0711 16.6277 44.8344C16.5446 44.7533 16.4454 44.691 16.3368 44.6516C16.1804 44.6095 16.0186 44.5916 15.8569 44.5986" fill="#312F2F"/>
<path d="M22.2176 51.5718V51.215C22.3956 51.2195 22.5737 51.2086 22.7498 51.1826C22.8225 51.161 22.8892 51.1227 22.9447 51.0705C23.0505 50.945 23.1368 50.8038 23.2006 50.6518C23.2675 50.5221 23.4915 50.0327 23.9045 49.1776L25.2569 46.2291C25.4023 45.9048 25.7194 45.1824 26.2022 44.062H26.5541L28.8634 49.3103C29.2376 50.1594 29.4858 50.6921 29.608 50.9083C29.6564 51.0103 29.7345 51.0947 29.8319 51.1501C30.0105 51.2017 30.1963 51.2226 30.3816 51.212V51.5688C29.8212 51.5334 29.4286 51.5157 29.2037 51.5157L27.4586 51.5688V51.212C27.7044 51.2153 27.9501 51.2034 28.1944 51.1767C28.2588 51.1693 28.3196 51.1426 28.369 51.1C28.3846 51.0836 28.3968 51.0642 28.4048 51.0429C28.4128 51.0216 28.4164 50.9989 28.4155 50.9762C28.4095 50.8738 28.3838 50.7737 28.3399 50.6813L27.6738 49.0803H24.5473L23.9656 50.4248C23.8837 50.5911 23.8316 50.7708 23.8114 50.9555C23.8101 50.9986 23.8246 51.0406 23.8521 51.0735C23.9022 51.1249 23.9677 51.1581 24.0383 51.1678C24.2701 51.2045 24.5047 51.2203 24.7392 51.215V51.5718C24.1314 51.5393 23.6747 51.5246 23.3722 51.5246C23.0232 51.5246 22.6393 51.5393 22.2263 51.5718M24.7392 48.638H27.4702L26.1178 45.4832L24.7392 48.638Z" fill="#312F2F"/>
<path d="M31.2629 51.5715V51.3003C31.4143 51.239 31.5571 51.1577 31.6875 51.0585C31.7243 51.027 31.7507 50.9848 31.7632 50.9376C31.8104 50.7318 31.8328 50.5209 31.8301 50.3096C31.8446 49.8319 31.8504 49.5489 31.8504 49.4575V46.6446C31.8504 46.1699 31.8504 45.707 31.8359 45.253C31.8456 45.0532 31.819 44.8533 31.7573 44.6633C31.706 44.598 31.6359 44.5506 31.5567 44.5276C31.2982 44.4842 31.0362 44.4664 30.7743 44.4746V44.1384C31.6468 44.1679 32.1994 44.1797 32.4088 44.1797C32.6182 44.1797 33.1563 44.1797 33.959 44.1384V44.4746C33.6981 44.4664 33.4371 44.4841 33.1796 44.5276C33.1036 44.5456 33.0359 44.5893 32.9876 44.6515C32.9256 44.8128 32.8979 44.9856 32.9062 45.1586C32.9062 45.2294 32.9062 45.7247 32.8829 46.6328V50.1592C32.8829 50.5248 32.8829 50.8226 32.9062 51.0437C33.3163 51.0703 33.7235 51.0821 34.1277 51.0821C34.8444 51.1114 35.5617 51.048 36.2625 50.8934C36.3131 50.7758 36.3549 50.6546 36.3876 50.5307L36.6028 49.6639H36.9664C36.8888 50.1828 36.8113 50.7931 36.7337 51.4949C36.5854 51.5214 36.469 51.5391 36.3818 51.5479C36.1956 51.5479 35.9048 51.5479 35.5092 51.5479L32.31 51.5066C31.9638 51.5066 31.6119 51.5066 31.2571 51.5479" fill="#312F2F"/>
<path d="M39.8603 44.4746V44.1384C40.5855 44.1581 41.1584 44.1689 41.5792 44.1709C41.87 44.1709 42.1609 44.1709 42.4779 44.1709L43.3272 44.1443H43.586C44.044 44.1273 44.5015 44.1901 44.9384 44.3301C45.2465 44.4346 45.5137 44.6358 45.7015 44.9046C45.8892 45.1733 45.9876 45.4957 45.9826 45.8249C45.9785 46.1438 45.8997 46.457 45.7528 46.739C45.594 47.047 45.3646 47.3119 45.0839 47.5115C44.8079 47.7157 44.4988 47.8693 44.1706 47.9655C43.9306 48.0298 43.683 48.0606 43.4348 48.0569C43.1841 48.055 42.934 48.0314 42.6873 47.9862L42.5739 47.594C42.8231 47.653 43.0773 47.6876 43.333 47.6972C43.6014 47.6972 43.8658 47.6314 44.1037 47.5056C44.3511 47.3801 44.5542 47.1804 44.6854 46.9336C44.8204 46.6717 44.8894 46.3799 44.8861 46.0844C44.8846 45.7967 44.8094 45.5142 44.668 45.2647C44.5395 45.0187 44.3352 44.822 44.0863 44.7045C43.779 44.5703 43.4464 44.5059 43.112 44.5158C42.7371 44.5209 42.3649 44.5805 42.0067 44.6927C41.9747 45.0613 41.9602 45.6421 41.9602 46.4294V49.0653C41.9602 49.54 41.9602 50.0029 41.9747 50.4511C41.9655 50.6509 41.9921 50.8507 42.0533 51.0408C42.1028 51.1086 42.1736 51.1574 42.254 51.1794C42.5124 51.2228 42.7745 51.2406 43.0363 51.2324V51.5686C42.3674 51.5391 41.873 51.5273 41.5647 51.5273C41.4425 51.5273 40.8783 51.5273 39.8719 51.5686V51.2324C40.1328 51.2403 40.3939 51.2225 40.6514 51.1794C40.7279 51.1605 40.7962 51.1171 40.8463 51.0555C40.9067 50.8937 40.9344 50.7213 40.9277 50.5484C40.9277 50.4747 40.9277 49.9793 40.9481 49.0742V46.6535C40.9481 46.1788 40.9481 45.7159 40.9481 45.2618C40.9578 45.062 40.9312 44.8621 40.8695 44.6721C40.8182 44.6068 40.748 44.5594 40.6688 44.5365C40.4104 44.493 40.1483 44.4753 39.8865 44.4834" fill="#312F2F"/>
<path d="M45.3631 51.5718V51.215C45.5411 51.2195 45.7191 51.2086 45.8953 51.1826C45.9682 51.1616 46.0351 51.1232 46.0902 51.0705C46.1971 50.9457 46.2835 50.8044 46.3462 50.6518C46.413 50.5221 46.637 50.0327 47.05 49.1776L48.4024 46.2291C48.5498 45.9048 48.8649 45.1824 49.3477 44.062H49.6996L52.0089 49.3103C52.3831 50.1594 52.6313 50.6921 52.7535 50.9083C52.8028 51.0106 52.882 51.0951 52.9803 51.1501C53.1578 51.202 53.3427 51.2229 53.5271 51.212V51.5688C52.9648 51.5334 52.5722 51.5157 52.3492 51.5157L50.6041 51.5688V51.212C50.8499 51.2153 51.0956 51.2034 51.34 51.1767C51.405 51.1685 51.4665 51.1419 51.5174 51.1C51.5471 51.0659 51.5627 51.0216 51.561 50.9762C51.555 50.8738 51.5293 50.7737 51.4854 50.6813L50.8222 49.0803H47.6928L47.1111 50.4248C47.0274 50.5906 46.9741 50.7704 46.954 50.9555C46.9532 50.9771 46.9566 50.9987 46.9641 51.019C46.9716 51.0392 46.983 51.0577 46.9976 51.0735C47.0454 51.1265 47.1105 51.16 47.1809 51.1678C47.4137 51.2045 47.6492 51.2203 47.8847 51.215V51.5718C47.2739 51.5393 46.8173 51.5246 46.5148 51.5246C46.1658 51.5246 45.7848 51.5393 45.3689 51.5718M47.8847 48.638H50.6128L49.2633 45.4832L47.8847 48.638Z" fill="#312F2F"/>
<path d="M53.975 44.4746V44.1385H54.6207L55.659 44.165C55.8626 44.165 56.1826 44.165 56.6159 44.1444C57.1772 44.1237 57.503 44.112 57.5931 44.112C58.1016 44.0889 58.6104 44.1496 59.0997 44.2918C59.4014 44.4012 59.6591 44.6085 59.8327 44.8815C60.0022 45.139 60.0923 45.4418 60.0915 45.7513C60.0897 46.063 60.0053 46.3685 59.8472 46.6358C59.678 46.9342 59.4355 47.1831 59.1434 47.3582C58.7701 47.5754 58.3628 47.726 57.9393 47.8034C58.0294 47.9243 58.2301 48.1985 58.5762 48.6202L59.9403 50.3568C60.33 50.8404 60.5568 51.1116 60.6208 51.1676C60.6503 51.1906 60.6839 51.2076 60.7197 51.2178C60.8365 51.2413 60.9556 51.2502 61.0746 51.2443V51.5804C60.8012 51.5598 60.5627 51.548 60.3562 51.548C60.1497 51.548 59.8821 51.548 59.5709 51.5804C59.3382 51.319 58.9456 50.8079 58.393 50.0472C58.0886 49.6246 57.8181 49.2728 57.5815 48.9917C57.2034 48.5229 56.8428 48.1071 56.4996 47.7209L56.5548 47.5617C56.7439 47.5617 56.8835 47.5794 56.9824 47.5794C57.5174 47.6185 58.048 47.4581 58.4744 47.1282C58.6407 46.9826 58.7728 46.8011 58.8608 46.5971C58.9489 46.393 58.9908 46.1715 58.9834 45.9489C58.992 45.7557 58.9569 45.563 58.8808 45.3857C58.8047 45.2083 58.6895 45.051 58.5442 44.9257C58.1617 44.6435 57.6926 44.5086 57.2209 44.5454C56.8505 44.5448 56.482 44.5995 56.1273 44.7075C56.1128 44.8962 56.104 45.0732 56.0953 45.2353C56.0953 45.2854 56.0953 45.7926 56.0575 46.7567V49.0801C56.0575 49.5548 56.0575 50.0177 56.0808 50.4659C56.0661 50.6654 56.0908 50.8659 56.1535 51.0556C56.2025 51.1239 56.2735 51.1729 56.3541 51.1942C56.6117 51.2371 56.8727 51.2549 57.1336 51.2472V51.5834C56.6217 51.5539 56.1506 51.5421 55.723 51.5421C55.3769 51.5421 54.7952 51.5421 53.9779 51.5834V51.2472C54.2389 51.2553 54.4999 51.2375 54.7574 51.1942C54.8342 51.1762 54.9028 51.1326 54.9523 51.0703C55.0127 50.9085 55.0404 50.7361 55.0337 50.5632C55.0337 50.4895 55.0337 49.9941 55.0541 49.089V46.6683C55.0541 46.1936 55.0541 45.7307 55.0541 45.2766C55.0638 45.0768 55.0372 44.8769 54.9755 44.6869C54.9248 44.621 54.8544 44.5735 54.7749 44.5513C54.5164 44.5079 54.2544 44.4901 53.9925 44.4982" fill="#312F2F"/>
<path d="M64.489 51.2355V51.5716L62.8573 51.5303C62.7468 51.5303 62.235 51.5303 61.3275 51.5716V51.2355C61.5884 51.2431 61.8494 51.2254 62.107 51.1824C62.183 51.1644 62.2507 51.1208 62.2989 51.0585C62.3609 50.8972 62.3887 50.7244 62.3804 50.5514C62.3804 50.4777 62.3804 49.9824 62.4036 49.0772V46.6565C62.4036 46.1818 62.4036 45.7189 62.3862 45.2648C62.3959 45.065 62.3693 44.8651 62.3077 44.6751C62.2575 44.6086 62.1869 44.5609 62.107 44.5395C61.8495 44.496 61.5884 44.4782 61.3275 44.4864V44.1503C62.0255 44.1709 62.5607 44.1827 62.933 44.1827C63.3052 44.1827 63.8201 44.1827 64.489 44.1503V44.4864C64.2291 44.4785 63.969 44.4962 63.7124 44.5395C63.6366 44.5559 63.5693 44.6 63.5234 44.6633C63.4571 44.8236 63.4272 44.9969 63.4361 45.1705C63.4361 45.2412 63.4361 45.7366 63.4129 46.6447V47.7209C63.6659 47.5773 63.8988 47.3998 64.1051 47.1931L64.7886 46.5562L65.9927 45.3769C66.458 44.9257 66.7459 44.6368 66.8652 44.51V44.1267C67.2927 44.1267 67.6301 44.1474 67.8744 44.1474C68.1187 44.1474 68.4212 44.1473 68.7237 44.1267V44.4658C68.4921 44.4575 68.2602 44.4723 68.0315 44.51C67.9065 44.5395 67.7882 44.5925 67.6825 44.6663C67.4498 44.8284 67.1008 45.1233 66.6209 45.5508L64.4454 47.4644L67.6912 50.4128C67.9758 50.6863 68.2738 50.9451 68.5841 51.1883C68.7161 51.2417 68.8581 51.2649 69 51.2561V51.5804C68.6452 51.5804 68.4183 51.5598 68.2903 51.5598C68.1624 51.5598 67.8773 51.5598 67.4469 51.5804C67.3654 51.5008 67.063 51.2178 66.5453 50.7372L65.9868 50.2212L63.5321 47.9921L63.407 48.06V49.0742C63.407 49.5489 63.407 50.0118 63.4303 50.46C63.4173 50.6595 63.4419 50.8596 63.503 51.0497C63.5527 51.1188 63.6248 51.1678 63.7066 51.1883C63.9632 51.2315 64.2232 51.2493 64.4832 51.2414" fill="#312F2F"/>
<path d="M37.1292 13.9788H35.5877V42.7381H37.1292V13.9788Z" fill="#312F2F"/>
<path d="M32.9207 19.6929H31.3676V42.7381H32.9207V19.6929Z" fill="#312F2F"/>
<path d="M31.8243 14.822V15.9041C25.3559 17.0245 20.5278 20.3032 17.8637 26.1677C15.1996 32.0322 15.8714 37.6667 19.2394 43.0447C18.6752 42.6378 17.125 39.8162 16.5142 38.0323C15.8966 36.1962 15.5917 34.2669 15.6126 32.3271C15.6375 30.3933 15.9907 28.4783 16.6567 26.666C19.3645 19.1386 26.1266 15.4618 31.8184 14.8338" fill="#312F2F"/>
<path d="M32.2198 9.8833H33.7613V42.738H33.2872V19.342H32.2198V9.8833Z" fill="#312F2F"/>
<path d="M35.2358 42.7379H34.7472V6.87573H36.2916V13.6159H35.2358V42.7379Z" fill="#312F2F"/>
<path d="M34.1249 9.52354H33.4879V0H35.0207V6.50726H34.3721V42.738H34.1249V9.52354Z" fill="#312F2F"/>
<path d="M37.4841 16.0987C40.9481 16.765 44.1736 18.2687 46.6806 20.6658C51.023 24.8143 52.7884 29.865 52.038 35.703C51.6879 38.2956 50.7469 40.7699 49.2895 42.9297C49.2546 42.9827 49.2255 43.0388 49.1935 43.0918C49.2079 43.0907 49.2218 43.0865 49.2344 43.0793C49.247 43.0722 49.2578 43.0624 49.2663 43.0506C51.1192 40.6986 52.3109 37.8829 52.7157 34.901C52.7913 34.3526 52.8291 33.7983 52.8844 33.2469V31.7992L52.8495 31.5427C52.7389 30.6877 52.6779 29.8238 52.5063 28.9775C51.7472 25.2566 49.8654 22.1194 47.0616 19.5041C44.4731 17.0923 41.0121 15.6004 37.4841 14.9458" fill="#312F2F"/>
<path d="M37.0418 14.8307L36.6552 14.7717V15.9511H37.0418V14.8307Z" fill="#312F2F"/>
<path d="M24.8643 54.6056C24.8643 54.3756 24.8643 54.178 24.8468 53.9982H25.1813L25.1958 54.3815H25.2104C25.2479 54.2601 25.3219 54.1537 25.422 54.077C25.5221 54.0004 25.6434 53.9573 25.7688 53.9539C25.8035 53.9489 25.8388 53.9489 25.8735 53.9539V54.2871C25.8319 54.2837 25.79 54.2837 25.7484 54.2871C25.6258 54.29 25.5083 54.3379 25.4179 54.4219C25.3275 54.506 25.2703 54.6205 25.2569 54.7441C25.246 54.7985 25.2401 54.8538 25.2394 54.9092V55.9501H24.8788L24.8643 54.6056Z" fill="#312F2F"/>
<path d="M26.5716 55.039C26.5666 55.1313 26.5813 55.2236 26.6147 55.3096C26.6481 55.3956 26.6994 55.4733 26.7651 55.5374C26.8308 55.6015 26.9093 55.6505 26.9954 55.681C27.0815 55.7115 27.173 55.7228 27.2638 55.7142C27.4548 55.72 27.6449 55.6859 27.8222 55.6139L27.8862 55.8675C27.6724 55.9528 27.444 55.9939 27.2144 55.9884C27.0832 56.0001 26.9511 55.983 26.8271 55.9382C26.7031 55.8933 26.5901 55.8218 26.4959 55.7285C26.4017 55.6353 26.3285 55.5225 26.2813 55.3979C26.2341 55.2732 26.2141 55.1398 26.2226 55.0066C26.2105 54.8732 26.2259 54.7388 26.2678 54.6118C26.3098 54.4848 26.3774 54.3681 26.4664 54.269C26.5553 54.17 26.6636 54.0909 26.7844 54.0366C26.9051 53.9824 27.0357 53.9542 27.1678 53.954C27.284 53.9522 27.3992 53.9752 27.5059 54.0217C27.6127 54.0681 27.7086 54.1368 27.7873 54.2233C27.8661 54.3099 27.926 54.4123 27.9631 54.5239C28.0002 54.6354 28.0136 54.7537 28.0026 54.8709C28.0026 54.9446 28.0026 55.0007 28.0026 55.039H26.5716ZM27.6477 54.7825C27.6564 54.7098 27.6497 54.6362 27.628 54.5664C27.6064 54.4966 27.5702 54.4323 27.522 54.3778C27.4738 54.3234 27.4146 54.28 27.3485 54.2506C27.2824 54.2213 27.2109 54.2066 27.1387 54.2075C26.9905 54.2127 26.8498 54.2752 26.7455 54.382C26.6412 54.4889 26.581 54.6321 26.5774 54.7825H27.6477Z" fill="#312F2F"/>
<path d="M29.7563 55.9501L29.7273 55.7024C29.6538 55.7963 29.56 55.8718 29.453 55.923C29.3461 55.9741 29.2289 55.9995 29.1107 55.9972C29.0332 56.005 28.9549 55.9963 28.8809 55.9718C28.8069 55.9473 28.7387 55.9074 28.6807 55.8547C28.6227 55.802 28.5762 55.7377 28.5441 55.6658C28.5119 55.5939 28.4949 55.516 28.4941 55.437C28.4941 54.9653 28.9274 54.7058 29.704 54.7087V54.6704C29.7113 54.6083 29.7045 54.5454 29.684 54.4864C29.6634 54.4275 29.6298 54.3741 29.5856 54.3305C29.5414 54.2869 29.488 54.2541 29.4293 54.2349C29.3706 54.2156 29.3084 54.2102 29.2474 54.2193C29.0624 54.2195 28.8807 54.2693 28.7209 54.3638L28.6395 54.1309C28.8408 54.0129 29.0701 53.9527 29.3026 53.9569C29.4077 53.9451 29.514 53.9578 29.6135 53.994C29.713 54.0302 29.803 54.0889 29.8768 54.1656C29.9506 54.2424 30.0061 54.3352 30.0391 54.437C30.0722 54.5387 30.0819 54.6468 30.0675 54.753V55.4842C30.0649 55.6412 30.0766 55.7982 30.1025 55.953L29.7563 55.9501ZM29.7011 54.9535C29.3026 54.9535 28.8489 55.0124 28.8489 55.3928C28.8462 55.4391 28.8534 55.4854 28.87 55.5286C28.8866 55.5717 28.9122 55.6108 28.9451 55.643C28.9779 55.6752 29.0173 55.6998 29.0604 55.7152C29.1036 55.7305 29.1495 55.7362 29.195 55.7319C29.2996 55.7356 29.4026 55.7061 29.4898 55.6474C29.5769 55.5887 29.6437 55.5038 29.6807 55.4046C29.6931 55.3685 29.7 55.3307 29.7011 55.2925V54.9535Z" fill="#312F2F"/>
<path d="M31.1987 53.0872H30.8325V55.9501H31.1987V53.0872Z" fill="#312F2F"/>
<path d="M33.2697 55.0389C33.2647 55.1312 33.2794 55.2235 33.3128 55.3096C33.3462 55.3956 33.3975 55.4733 33.4632 55.5374C33.5289 55.6014 33.6075 55.6504 33.6935 55.6809C33.7796 55.7114 33.8711 55.7228 33.9619 55.7141C34.1529 55.7197 34.3429 55.6856 34.5203 55.6139L34.5814 55.8675C34.3688 55.9531 34.1412 55.9942 33.9125 55.9884C33.7813 56.0001 33.6492 55.983 33.5252 55.9381C33.4012 55.8933 33.2882 55.8218 33.194 55.7285C33.0998 55.6352 33.0266 55.5224 32.9794 55.3978C32.9323 55.2732 32.9122 55.1397 32.9207 55.0065C32.9086 54.8732 32.924 54.7387 32.966 54.6117C33.0079 54.4848 33.0755 54.368 33.1645 54.269C33.2534 54.17 33.3617 54.0908 33.4825 54.0366C33.6033 53.9823 33.7338 53.9542 33.8659 53.9539C33.9818 53.9526 34.0967 53.9759 34.2031 54.0225C34.3095 54.0691 34.4051 54.1379 34.4835 54.2244C34.562 54.3109 34.6216 54.4132 34.6585 54.5245C34.6954 54.6359 34.7088 54.7539 34.6978 54.8709C34.702 54.9268 34.702 54.983 34.6978 55.0389H33.2697ZM34.3458 54.7824C34.3546 54.7098 34.3479 54.6361 34.3262 54.5663C34.3045 54.4965 34.2683 54.4323 34.2201 54.3778C34.1719 54.3234 34.1128 54.28 34.0467 54.2506C33.9806 54.2212 33.909 54.2065 33.8369 54.2075C33.6881 54.212 33.5467 54.2741 33.4418 54.381C33.3368 54.488 33.2763 54.6316 33.2726 54.7824H34.3458Z" fill="#312F2F"/>
<path d="M35.2853 55.5845C35.4332 55.6713 35.6002 55.7189 35.771 55.723C36.0357 55.723 36.1607 55.5963 36.1607 55.4282C36.1607 55.2601 36.0589 55.1658 35.7855 55.0685C35.4249 54.9447 35.2533 54.7501 35.2533 54.5171C35.2533 54.2016 35.5151 53.9451 35.9484 53.9451C36.1215 53.9434 36.2923 53.9849 36.4458 54.066L36.3527 54.3225C36.2272 54.2488 36.0847 54.2102 35.9397 54.2105C35.7245 54.2105 35.6023 54.3314 35.6023 54.4758C35.6023 54.6203 35.7245 54.7117 35.9862 54.8061C36.3381 54.9358 36.5156 55.1009 36.5156 55.3958C36.5156 55.7378 36.2422 55.9855 35.7623 55.9855C35.5654 55.9887 35.3707 55.9431 35.1951 55.8528L35.2853 55.5845Z" fill="#312F2F"/>
<path d="M37.612 53.438V53.9982H38.1385V54.2665H37.612V55.3191C37.612 55.5609 37.6818 55.6995 37.8883 55.6995C37.9598 55.7004 38.0311 55.6925 38.1007 55.6759L38.1152 55.9412C38.011 55.9752 37.9018 55.9912 37.7924 55.9884C37.7196 55.9925 37.6467 55.9815 37.5782 55.9562C37.5097 55.9308 37.447 55.8916 37.3939 55.841C37.2851 55.6951 37.2352 55.5127 37.2543 55.3309V54.2665H36.9402V53.9982H37.2543V53.5205L37.612 53.438Z" fill="#312F2F"/>
<path d="M39.8486 55.9501L39.8196 55.7025C39.7463 55.7966 39.6524 55.8722 39.5454 55.9234C39.4385 55.9745 39.3212 55.9999 39.203 55.9973C39.1255 56.0046 39.0475 55.9957 38.9737 55.971C38.8998 55.9463 38.8318 55.9064 38.7739 55.8538C38.7161 55.8012 38.6695 55.737 38.6372 55.6653C38.605 55.5936 38.5876 55.5159 38.5864 55.4371C38.5864 54.9654 39.0197 54.7059 39.7992 54.7088V54.6705C39.806 54.6083 39.7987 54.5453 39.7779 54.4864C39.757 54.4274 39.723 54.3742 39.6786 54.3306C39.6343 54.2871 39.5806 54.2544 39.5219 54.2351C39.4631 54.2158 39.4008 54.2104 39.3397 54.2194C39.1556 54.2195 38.9749 54.2694 38.8161 54.3639L38.7318 54.1309C38.9333 54.0134 39.1624 53.9532 39.3949 53.957C39.5002 53.9447 39.6069 53.9571 39.7067 53.993C39.8066 54.029 39.897 54.0876 39.9711 54.1644C40.0452 54.2412 40.101 54.3342 40.1342 54.4362C40.1674 54.5383 40.1772 54.6466 40.1627 54.7531V55.4843C40.1592 55.6412 40.1699 55.7981 40.1947 55.9531L39.8486 55.9501ZM39.7963 54.9536C39.3949 54.9536 38.9412 55.0125 38.9412 55.3929C38.939 55.439 38.9465 55.4851 38.9633 55.5281C38.98 55.571 39.0057 55.6099 39.0384 55.642C39.0712 55.6741 39.1103 55.6987 39.1533 55.7142C39.1962 55.7297 39.2419 55.7358 39.2873 55.732C39.3923 55.7359 39.4958 55.7065 39.5834 55.6478C39.671 55.5891 39.7384 55.5041 39.7759 55.4047C39.7883 55.3686 39.7952 55.3308 39.7963 55.2926V54.9536Z" fill="#312F2F"/>
<path d="M41.3494 53.438V53.9982H41.8758V54.2665H41.3494V55.3191C41.3494 55.5609 41.4221 55.6995 41.6257 55.6995C41.6971 55.7004 41.7684 55.6925 41.838 55.6759L41.8554 55.9412C41.7502 55.9752 41.6401 55.9912 41.5297 55.9884C41.4573 55.9928 41.3848 55.9819 41.3167 55.9566C41.2487 55.9312 41.1865 55.8919 41.1341 55.841C41.0229 55.6962 40.9718 55.5133 40.9916 55.3309V54.2665H40.6804V53.9982H40.9916V53.5205L41.3494 53.438Z" fill="#312F2F"/>
<path d="M42.6495 55.039C42.6445 55.1313 42.6592 55.2236 42.6926 55.3096C42.7259 55.3956 42.7772 55.4733 42.843 55.5374C42.9087 55.6015 42.9872 55.6505 43.0733 55.681C43.1594 55.7115 43.2509 55.7228 43.3417 55.7142C43.5326 55.72 43.7227 55.6859 43.9001 55.6139L43.9641 55.8675C43.7503 55.9528 43.5219 55.9939 43.2922 55.9884C43.1611 56.0001 43.029 55.983 42.905 55.9382C42.7809 55.8933 42.668 55.8218 42.5738 55.7285C42.4796 55.6353 42.4064 55.5225 42.3592 55.3979C42.312 55.2732 42.292 55.1398 42.3005 55.0066C42.2883 54.8732 42.3038 54.7388 42.3457 54.6118C42.3877 54.4848 42.4553 54.3681 42.5442 54.269C42.6332 54.17 42.7415 54.0909 42.8622 54.0366C42.983 53.9824 43.1136 53.9542 43.2457 53.954C43.3618 53.9522 43.4771 53.9752 43.5838 54.0217C43.6906 54.0681 43.7864 54.1368 43.8652 54.2233C43.944 54.3099 44.0039 54.4123 44.0409 54.5239C44.078 54.6354 44.0915 54.7537 44.0804 54.8709C44.0804 54.9446 44.0804 55.0007 44.0804 55.039H42.6495ZM43.7256 54.7825C43.7343 54.7098 43.7276 54.6362 43.7059 54.5664C43.6842 54.4966 43.6481 54.4323 43.5999 54.3778C43.5517 54.3234 43.4925 54.28 43.4264 54.2506C43.3603 54.2213 43.2888 54.2066 43.2166 54.2075C43.0684 54.2127 42.9277 54.2752 42.8234 54.382C42.719 54.4889 42.6589 54.6321 42.6553 54.7825H43.7256Z" fill="#312F2F"/>
</svg>
