<svg width="99" height="80" viewBox="0 0 99 80" fill="none" xmlns="http://www.w3.org/2000/svg">
<path d="M0 63.5354V63.0553H0.918235L2.40155 63.0932C2.69655 63.0932 3.14942 63.0932 3.76851 63.0637C4.57041 63.0342 5.03991 63.0173 5.16872 63.0173C5.89376 62.9843 6.61928 63.0711 7.31682 63.2743C7.74909 63.4282 8.11783 63.7249 8.36386 64.1167C8.60764 64.4837 8.73653 64.9168 8.73365 65.3593C8.73276 65.8042 8.61362 66.2407 8.38878 66.6229C8.14566 67.0494 7.79785 67.4049 7.37914 67.6549C6.84592 67.9652 6.26408 68.1803 5.65901 68.2909C5.78781 68.4636 6.07449 68.8553 6.57308 69.4576L8.5176 71.9386C9.07436 72.6293 9.39843 73.0169 9.494 73.0969C9.53489 73.1292 9.5814 73.1535 9.63111 73.1685C9.79935 73.2018 9.97093 73.2146 10.1422 73.2064V73.6866C9.7516 73.6571 9.40675 73.6402 9.11175 73.6402C8.81675 73.6402 8.4345 73.6402 7.99407 73.6866C7.65891 73.3131 7.09799 72.583 6.31132 71.4963C5.8709 70.8926 5.4845 70.3899 5.15211 69.9884C4.61197 69.3186 4.09675 68.7247 3.60647 68.1729L3.68542 67.9455C3.95133 67.9455 4.15492 67.9708 4.29203 67.9708C5.05751 68.0262 5.81669 67.7971 6.42767 67.3263C6.66404 67.1175 6.85155 66.858 6.97661 66.5666C7.10166 66.2751 7.16111 65.9591 7.15062 65.6415C7.16282 65.3659 7.11306 65.0911 7.00508 64.8379C6.89711 64.5847 6.73376 64.3597 6.52739 64.1799C5.97908 63.7774 5.3078 63.5848 4.63274 63.6365C4.10496 63.6356 3.57992 63.7136 3.07464 63.8682C3.05387 64.1378 3.03724 64.3905 3.02893 64.6222C3.02893 64.6938 3.004 65.4182 2.97492 66.7956V70.1147C2.97492 70.7929 2.97492 71.4542 3.004 72.0944C2.98536 72.3794 3.02062 72.6653 3.10788 72.9368C3.17976 73.0345 3.28237 73.1043 3.39873 73.1348C3.7652 73.1966 4.13674 73.222 4.50808 73.2106V73.6908C3.78097 73.6487 3.10788 73.6318 2.49296 73.6318C1.99852 73.6318 1.16753 73.6318 0 73.6908V73.2106C0.371341 73.222 0.742881 73.1966 1.10936 73.1348C1.21946 73.11 1.31778 73.0476 1.38774 72.9579C1.4763 72.7274 1.51594 72.4805 1.50408 72.2334C1.50408 72.1281 1.50408 71.4205 1.53732 70.1274V66.6692C1.53732 65.9911 1.53732 65.3298 1.51239 64.6811C1.52628 64.3957 1.48826 64.1102 1.40021 63.8387C1.3285 63.7437 1.22764 63.6755 1.11352 63.6449C0.745683 63.5828 0.372726 63.5574 0 63.5691" fill="white"/>
<path d="M10.5037 68.4551C10.4957 67.7115 10.6196 66.9725 10.8693 66.2733C11.1281 65.5841 11.5455 64.9675 12.0867 64.4747C12.6426 63.9465 13.2965 63.5356 14.0104 63.2658C14.7976 62.9781 15.6292 62.8354 16.466 62.8446C17.2506 62.8342 18.0319 62.9508 18.7803 63.19C19.4036 63.3822 19.9847 63.6939 20.4921 64.1083C20.9129 64.4649 21.2699 64.8924 21.5474 65.3719C21.7577 65.7463 21.9144 66.149 22.0128 66.5681C22.132 67.0501 22.1906 67.5455 22.1873 68.0424C22.2092 68.8303 22.0644 69.6139 21.7627 70.3405C21.461 71.067 21.0093 71.7196 20.4381 72.2545C19.245 73.3857 17.6583 73.9916 16.0255 73.9393C15.2549 73.9457 14.4888 73.8175 13.7611 73.5602C13.0916 73.3259 12.4845 72.9382 11.987 72.4271C11.4898 71.9097 11.1123 71.2868 10.8817 70.6033C10.6365 69.9288 10.5085 69.2162 10.5037 68.4973M12.1074 67.8781C12.1085 68.3622 12.1586 68.8449 12.257 69.3186C12.3368 69.7517 12.4607 70.1752 12.6268 70.5823C12.8492 71.1442 13.1781 71.6565 13.5949 72.0902C13.9735 72.4815 14.4294 72.7872 14.9328 72.9874C15.4553 73.1829 16.0087 73.28 16.5657 73.2738C17.3264 73.2931 18.0765 73.0899 18.7262 72.6883C19.3414 72.2957 19.8206 71.7186 20.0974 71.0372C20.4128 70.2587 20.567 69.4229 20.5503 68.5815C20.5575 67.8386 20.4481 67.0993 20.2262 66.3912C20.1006 65.9987 19.9216 65.6258 19.6943 65.2834C19.4767 64.9535 19.2088 64.6607 18.9008 64.4158C18.5422 64.139 18.1386 63.928 17.7083 63.7924C17.1986 63.6172 16.6634 63.5303 16.1253 63.5354C15.3731 63.5188 14.6298 63.7018 13.9689 64.0661C13.3561 64.4164 12.8688 64.9547 12.577 65.6036C12.2554 66.3169 12.095 67.0939 12.1074 67.8781Z" fill="white"/>
<path d="M22.6403 63.712V63.2571L24.5017 62.9075C24.6498 62.9505 24.79 63.0174 24.9172 63.1054C25.0933 63.2822 25.2558 63.4723 25.4033 63.6741C25.863 64.2941 26.2861 64.9411 26.6706 65.6116C27.1484 66.4288 27.6595 67.3596 28.1996 68.4127C28.7439 67.5997 29.3048 66.7278 29.8616 65.7675L31.5236 63.0549H32.7077V63.2571C32.4307 63.5603 31.91 64.2202 31.1455 65.2368C30.73 65.8265 30.14 66.6773 29.4378 67.8019C29.1621 68.2049 28.915 68.6272 28.6982 69.0655C28.6427 69.2078 28.6131 69.3591 28.6109 69.512V70.0849C28.6109 70.763 28.6109 71.4243 28.6359 72.0646C28.6226 72.3499 28.6606 72.6354 28.7481 72.907C28.8182 73.0046 28.9195 73.0745 29.0347 73.1049C29.4026 73.1671 29.7755 73.1925 30.1483 73.1808V73.6609C29.3173 73.6188 28.586 73.602 27.9711 73.602C27.3562 73.602 26.6083 73.602 25.6443 73.6609V73.1808C26.0171 73.1922 26.39 73.1668 26.7579 73.1049C26.8658 73.0804 26.9615 73.0177 27.0279 72.928C27.1206 72.6985 27.1631 72.4513 27.1526 72.2036C27.1526 72.0983 27.1526 71.3906 27.1817 70.0975V69.2256C27.0736 68.9982 26.9697 68.8044 26.8659 68.6191C26.762 68.4337 26.5335 68.0673 26.0806 67.3554L25.5862 66.5214C25.1707 65.8854 24.884 65.4305 24.6887 65.1609C24.4145 64.7596 24.1013 64.3871 23.7538 64.0489C23.6351 63.933 23.4935 63.844 23.3383 63.7878C23.1149 63.7276 22.8838 63.702 22.6528 63.712" fill="white"/>
<path d="M31.7394 73.674V73.1643C31.9937 73.1707 32.2481 73.1552 32.4998 73.118C32.6036 73.0872 32.6989 73.0324 32.7782 72.9579C32.9293 72.7786 33.0526 72.5769 33.1438 72.3598C33.2394 72.1745 33.5593 71.4753 34.1493 70.2538L36.0813 66.0417C36.2891 65.5784 36.742 64.5464 37.4317 62.9458H37.9344L41.2334 70.4433C41.7681 71.6564 42.1226 72.4174 42.2971 72.7263C42.3663 72.872 42.478 72.9926 42.617 73.0717C42.8721 73.1453 43.1375 73.1752 43.4023 73.1601V73.6698C42.6018 73.6192 42.0409 73.594 41.7196 73.594L39.2266 73.6698V73.1601C39.5777 73.1647 39.9287 73.1479 40.2778 73.1096C40.3698 73.099 40.4566 73.0609 40.5271 73.0001C40.5494 72.9767 40.5668 72.9489 40.5783 72.9185C40.5897 72.8881 40.5949 72.8557 40.5936 72.8232C40.585 72.677 40.5483 72.5339 40.4856 72.4019L39.5341 70.1148H35.0675L34.2366 72.0355C34.1197 72.2731 34.0451 72.5298 34.0163 72.7937C34.0145 72.8552 34.0352 72.9152 34.0745 72.9622C34.146 73.0356 34.2395 73.083 34.3404 73.0969C34.6716 73.1494 35.0067 73.1719 35.3418 73.1643V73.674C34.4734 73.6277 33.8211 73.6066 33.3889 73.6066C32.8904 73.6066 32.3419 73.6277 31.7519 73.674M35.3418 69.483H39.2432L37.3112 64.976L35.3418 69.483Z" fill="white"/>
<path d="M44.6613 73.6739V73.2864C44.8776 73.1988 45.0816 73.0827 45.2679 72.941C45.3205 72.8959 45.3582 72.8357 45.3759 72.7683C45.4434 72.4742 45.4755 72.173 45.4715 71.8711C45.4923 71.1887 45.5006 70.7844 45.5006 70.6538V66.6355C45.5006 65.9573 45.5006 65.296 45.4798 64.6474C45.4937 64.3619 45.4557 64.0764 45.3676 63.8049C45.2943 63.7117 45.1941 63.6439 45.0809 63.6112C44.7117 63.5491 44.3374 63.5238 43.9633 63.5354V63.0552C45.2097 63.0973 45.9992 63.1142 46.2983 63.1142C46.5975 63.1142 47.3661 63.1141 48.5129 63.0552V63.5354C48.1402 63.5237 47.7672 63.549 47.3994 63.6112C47.2908 63.6368 47.1941 63.6992 47.1251 63.7881C47.0366 64.0186 46.997 64.2655 47.0088 64.5126C47.0088 64.6137 47.0088 65.3213 46.9756 66.6186V71.6563C46.9756 72.1786 46.9756 72.604 47.0088 72.9199C47.5947 72.9578 48.1764 72.9747 48.7539 72.9747C49.7776 73.0166 50.8025 72.926 51.8036 72.7051C51.8758 72.5371 51.9355 72.364 51.9823 72.187L52.2897 70.9486H52.8091C52.6983 71.69 52.5875 72.5619 52.4767 73.5644C52.2648 73.6023 52.0986 73.6275 51.974 73.6402C51.708 73.6402 51.2925 73.6402 50.7275 73.6402L46.1571 73.5812C45.6626 73.5812 45.1599 73.5812 44.653 73.6402" fill="white"/>
<path d="M56.9433 63.5354V63.0552C57.9793 63.0833 58.7978 63.0987 59.3989 63.1015C59.8144 63.1015 60.2298 63.1015 60.6827 63.1015L61.896 63.0636H62.2658C62.92 63.0393 63.5735 63.129 64.1978 63.329C64.6379 63.4783 65.0196 63.7657 65.2878 64.1496C65.556 64.5336 65.6967 64.9941 65.6894 65.4645C65.6835 65.9199 65.571 66.3675 65.3612 66.7702C65.1343 67.2103 64.8066 67.5887 64.4056 67.8738C64.0113 68.1655 63.5698 68.3851 63.1009 68.5225C62.758 68.6143 62.4043 68.6582 62.0497 68.653C61.6916 68.6503 61.3343 68.6165 60.9819 68.552L60.8199 67.9917C61.1758 68.076 61.539 68.1254 61.9043 68.1392C62.2877 68.1391 62.6654 68.0452 63.0053 67.8654C63.3587 67.6862 63.6489 67.4008 63.8363 67.0482C64.0292 66.6741 64.1277 66.2573 64.123 65.8352C64.1208 65.4241 64.0135 65.0206 63.8114 64.6642C63.6279 64.3127 63.3361 64.0317 62.9804 63.8639C62.5414 63.6721 62.0663 63.5801 61.5885 63.5943C61.053 63.6016 60.5213 63.6867 60.0096 63.8471C59.9639 64.3736 59.9432 65.2033 59.9432 66.328V70.0936C59.9432 70.7717 59.9432 71.433 59.9639 72.0733C59.9507 72.3586 59.9887 72.6441 60.0761 72.9157C60.147 73.0125 60.248 73.0823 60.3628 73.1137C60.7321 73.1757 61.1064 73.2011 61.4805 73.1895V73.6697C60.5249 73.6275 59.8185 73.6107 59.3781 73.6107C59.2036 73.6107 58.3975 73.6107 56.9599 73.6697V73.1895C57.3327 73.2007 57.7056 73.1753 58.0735 73.1137C58.1827 73.0868 58.2804 73.0247 58.3518 72.9367C58.4382 72.7056 58.4778 72.4592 58.4682 72.2123C58.4682 72.107 58.4682 71.3993 58.4973 70.1062V66.6481C58.4973 65.9699 58.4973 65.3087 58.4973 64.66C58.5112 64.3746 58.4731 64.089 58.3851 63.8176C58.3117 63.7243 58.2115 63.6566 58.0984 63.6238C57.7291 63.5618 57.3548 63.5364 56.9807 63.548" fill="white"/>
<path d="M64.8044 73.674V73.1643C65.0587 73.1707 65.3131 73.1552 65.5648 73.118C65.6689 73.0881 65.7644 73.0332 65.8432 72.9579C65.9958 72.7797 66.1193 72.5777 66.2088 72.3598C66.3044 72.1745 66.6243 71.4753 67.2143 70.2538L69.1463 66.0417C69.3569 65.5784 69.807 64.5464 70.4967 62.9458H70.9994L74.2984 70.4433C74.833 71.6564 75.1876 72.4174 75.3621 72.7263C75.4326 72.8724 75.5457 72.993 75.6862 73.0717C75.9398 73.1458 76.2039 73.1757 76.4673 73.1601V73.6698C75.664 73.6192 75.1031 73.594 74.7846 73.594L72.2916 73.6698V73.1601C72.6427 73.1647 72.9937 73.1479 73.3428 73.1096C73.4358 73.0979 73.5236 73.06 73.5963 73.0001C73.6387 72.9514 73.661 72.8881 73.6586 72.8232C73.65 72.677 73.6133 72.5339 73.5506 72.4019L72.6032 70.1148H68.1325L67.3016 72.0355C67.182 72.2723 67.1059 72.5292 67.0772 72.7937C67.076 72.8246 67.0809 72.8554 67.0916 72.8843C67.1023 72.9132 67.1186 72.9397 67.1395 72.9622C67.2077 73.0379 67.3007 73.0858 67.4013 73.0969C67.7338 73.1493 68.0703 73.1719 68.4068 73.1643V73.674C67.5342 73.6277 66.8819 73.6066 66.4498 73.6066C65.9512 73.6066 65.4069 73.6277 64.8127 73.674M68.4068 69.483H72.3041L70.3762 64.976L68.4068 69.483Z" fill="white"/>
<path d="M77.1072 63.5354V63.0552H78.0296L79.5129 63.0931C79.8037 63.0931 80.2608 63.0931 80.8799 63.0637C81.6818 63.0342 82.1471 63.0173 82.2759 63.0173C83.0023 62.9843 83.7292 63.0711 84.4282 63.2743C84.8592 63.4305 85.2273 63.7266 85.4752 64.1167C85.7174 64.4845 85.8461 64.917 85.845 65.3592C85.8424 65.8045 85.7219 66.241 85.496 66.6229C85.2543 67.0491 84.9079 67.4046 84.4905 67.6548C83.9573 67.9651 83.3754 68.1803 82.7703 68.2909C82.8991 68.4636 83.1858 68.8553 83.6803 69.4576L85.6289 71.9385C86.1857 72.6293 86.5098 73.0168 86.6012 73.0969C86.6433 73.1297 86.6913 73.154 86.7425 73.1685C86.9093 73.2021 87.0795 73.2148 87.2493 73.2064V73.6866C86.8588 73.6571 86.5181 73.6402 86.2231 73.6402C85.9281 73.6402 85.5458 73.6402 85.1013 73.6866C84.7689 73.3131 84.2079 72.583 83.4185 71.4963C82.9836 70.8925 82.5972 70.3899 82.2593 69.9883C81.7192 69.3186 81.2039 68.7247 80.7137 68.1729L80.7926 67.9455C81.0627 67.9455 81.2621 67.9707 81.4034 67.9707C82.1676 68.0267 82.9257 67.7975 83.5348 67.3263C83.7724 67.1183 83.9611 66.859 84.0869 66.5675C84.2127 66.2759 84.2725 65.9595 84.2619 65.6415C84.2743 65.3655 84.2241 65.0903 84.1154 64.8369C84.0067 64.5836 83.8422 64.3588 83.6346 64.1799C83.0882 63.7766 82.4179 63.584 81.7441 63.6365C81.2149 63.6357 80.6886 63.7138 80.1818 63.8682C80.1611 64.1377 80.1486 64.3905 80.1361 64.6221C80.1361 64.6937 80.1361 65.4182 80.0821 66.7956V70.1147C80.0821 70.7928 80.0821 71.4541 80.1153 72.0944C80.0945 72.3794 80.1298 72.6658 80.2192 72.9368C80.2893 73.0344 80.3906 73.1044 80.5059 73.1348C80.8738 73.1962 81.2467 73.2215 81.6194 73.2106V73.6908C80.8882 73.6486 80.2151 73.6318 79.6043 73.6318C79.1099 73.6318 78.2789 73.6318 77.1113 73.6908V73.2106C77.4841 73.2221 77.857 73.1967 78.2249 73.1348C78.3346 73.1091 78.4326 73.0468 78.5032 72.9579C78.5896 72.7267 78.6292 72.4803 78.6196 72.2334C78.6196 72.1281 78.6196 71.4204 78.6487 70.1273V66.6692C78.6487 65.9911 78.6487 65.3298 78.6487 64.6811C78.6626 64.3957 78.6245 64.1101 78.5365 63.8387C78.4639 63.7445 78.3634 63.6766 78.2498 63.6449C77.8805 63.5829 77.5062 63.5575 77.1321 63.5691" fill="white"/>
<path d="M92.1271 73.1939V73.6741L89.7962 73.6151C89.6383 73.6151 88.9071 73.6151 87.6107 73.6741V73.1939C87.9834 73.2049 88.3563 73.1795 88.7242 73.1181C88.8328 73.0925 88.9295 73.0301 88.9984 72.9412C89.087 72.7107 89.1267 72.4638 89.1148 72.2167C89.1148 72.1114 89.1148 71.4038 89.148 70.1107V66.6525C89.148 65.9744 89.148 65.3131 89.1231 64.6644C89.137 64.379 89.099 64.0935 89.0109 63.822C88.9392 63.727 88.8384 63.6588 88.7242 63.6283C88.3564 63.5661 87.9834 63.5407 87.6107 63.5525V63.0723C88.6079 63.1018 89.3724 63.1186 89.9042 63.1186C90.4361 63.1186 91.1715 63.1186 92.1271 63.0723V63.5525C91.7558 63.5411 91.3842 63.5665 91.0177 63.6283C90.9094 63.6518 90.8133 63.7147 90.7477 63.8052C90.6529 64.0341 90.6103 64.2817 90.623 64.5297C90.623 64.6307 90.623 65.3384 90.5898 66.6357V68.1731C90.9513 67.968 91.2839 67.7144 91.5787 67.4191L92.5551 66.5093L94.2752 64.8245C94.94 64.1801 95.3513 63.7673 95.5217 63.5861V63.0386C96.1325 63.0386 96.6144 63.0681 96.9634 63.0681C97.3124 63.0681 97.7446 63.0681 98.1767 63.0386V63.523C97.8458 63.5111 97.5146 63.5323 97.1878 63.5861C97.0093 63.6283 96.8402 63.704 96.6892 63.8094C96.3568 64.0411 95.8582 64.4623 95.1727 65.073L92.0648 67.8067L96.7017 72.0188C97.1083 72.4095 97.534 72.7792 97.9772 73.1265C98.1658 73.2029 98.3687 73.236 98.5714 73.2234V73.6867C98.0645 73.6867 97.7404 73.6573 97.5576 73.6573C97.3748 73.6573 96.9676 73.6573 96.3527 73.6867C96.2363 73.573 95.8042 73.1687 95.0646 72.4821L94.2669 71.745L90.7601 68.5606L90.5815 68.6575V70.1065C90.5815 70.7846 90.5815 71.4459 90.6147 72.0861C90.5961 72.3711 90.6313 72.657 90.7186 72.9286C90.7895 73.0272 90.8925 73.0973 91.0094 73.1265C91.3759 73.1883 91.7475 73.2137 92.1188 73.2024" fill="white"/>
<path d="M53.0417 19.9692H50.8396V61.054H53.0417V19.9692Z" fill="white"/>
<path d="M47.0296 28.1326H44.8109V61.0543H47.0296V28.1326Z" fill="white"/>
<path d="M45.4632 21.1741V22.7199C36.2227 24.3205 29.3255 29.0044 25.5196 37.3822C21.7137 45.7601 22.6735 53.8094 27.4849 61.4922C26.6788 60.9109 24.4642 56.88 23.5917 54.3317C22.7095 51.7086 22.2739 48.9525 22.3037 46.1813C22.3393 43.4187 22.8439 40.683 23.7953 38.094C27.6635 27.3406 37.3237 22.0881 45.4549 21.1909" fill="white"/>
<path d="M46.0283 14.1189H48.2304V61.0542H47.5531V27.6313H46.0283V14.1189Z" fill="white"/>
<path d="M50.3369 61.0544H49.6389V9.82275H51.8451V19.4516H50.3369V61.0544Z" fill="white"/>
<path d="M48.7498 13.6051H47.8399V0H50.0296V9.29609H49.103V61.0543H48.7498V13.6051Z" fill="white"/>
<path d="M53.5488 22.998C58.4973 23.9499 63.1051 26.0981 66.6866 29.5225C72.8899 35.4489 75.412 42.6643 74.34 51.0042C73.8399 54.7079 72.4955 58.2426 70.4136 61.328C70.3638 61.4039 70.3222 61.4839 70.2765 61.5597C70.297 61.5581 70.3169 61.552 70.3349 61.5419C70.3528 61.5317 70.3683 61.5176 70.3804 61.5007C73.0274 58.1408 74.7299 54.1184 75.3081 49.8585C75.4161 49.0751 75.4702 48.2832 75.5491 47.4955V45.4274L75.4992 45.0609C75.3414 43.8394 75.2541 42.6053 75.009 41.3964C73.9245 36.0808 71.2363 31.5991 67.2309 27.863C63.5331 24.4175 58.5887 22.2862 53.5488 21.3511" fill="white"/>
<path d="M52.9168 21.187L52.3646 21.1028V22.7876H52.9168V21.187Z" fill="white"/>
<path d="M35.5204 78.008C35.5204 77.6795 35.5204 77.3973 35.4954 77.1403H35.9732L35.994 77.6879H36.0148C36.0684 77.5145 36.1741 77.3625 36.3171 77.2529C36.4602 77.1434 36.6334 77.082 36.8125 77.0771C36.8621 77.07 36.9125 77.07 36.9621 77.0771V77.5531C36.9027 77.5482 36.8429 77.5482 36.7835 77.5531C36.6082 77.5572 36.4404 77.6256 36.3113 77.7457C36.1821 77.8658 36.1004 78.0294 36.0813 78.206C36.0657 78.2836 36.0573 78.3626 36.0563 78.4419V79.9287H35.5411L35.5204 78.008Z" fill="white"/>
<path d="M37.9594 78.6276C37.9523 78.7594 37.9733 78.8913 38.021 79.0142C38.0687 79.137 38.1419 79.248 38.2358 79.3396C38.3297 79.4311 38.4419 79.5011 38.5649 79.5447C38.6878 79.5883 38.8186 79.6045 38.9483 79.5921C39.2211 79.6005 39.4926 79.5517 39.746 79.4489L39.8374 79.8112C39.532 79.933 39.2057 79.9917 38.8776 79.9839C38.6903 80.0007 38.5015 79.9762 38.3244 79.9121C38.1472 79.848 37.9858 79.7459 37.8512 79.6127C37.7167 79.4794 37.6121 79.3183 37.5447 79.1403C37.4773 78.9622 37.4487 78.7715 37.4608 78.5812C37.4435 78.3907 37.4655 78.1987 37.5255 78.0173C37.5854 77.8359 37.682 77.6691 37.8091 77.5277C37.9361 77.3862 38.0908 77.2731 38.2634 77.1956C38.4359 77.1181 38.6224 77.0779 38.8112 77.0775C38.9771 77.075 39.1417 77.1079 39.2941 77.1743C39.4466 77.2406 39.5836 77.3387 39.6962 77.4624C39.8087 77.586 39.8942 77.7323 39.9472 77.8917C40.0002 78.0511 40.0194 78.22 40.0036 78.3875C40.0036 78.4928 40.0036 78.5728 40.0036 78.6276H37.9594ZM39.4967 78.2611C39.5092 78.1574 39.4996 78.0521 39.4686 77.9524C39.4376 77.8527 39.386 77.7609 39.3171 77.6831C39.2483 77.6053 39.1638 77.5433 39.0693 77.5014C38.9749 77.4594 38.8727 77.4384 38.7696 77.4398C38.5579 77.4472 38.3569 77.5364 38.2078 77.6891C38.0588 77.8418 37.9729 78.0464 37.9677 78.2611H39.4967Z" fill="white"/>
<path d="M42.509 79.9286L42.4675 79.5748C42.3626 79.7091 42.2285 79.8169 42.0757 79.89C41.9229 79.963 41.7556 79.9993 41.5867 79.996C41.4759 80.0071 41.3642 79.9948 41.2584 79.9597C41.1527 79.9247 41.0553 79.8677 40.9725 79.7924C40.8896 79.7172 40.8231 79.6252 40.7772 79.5225C40.7313 79.4198 40.707 79.3085 40.7058 79.1957C40.7058 78.5218 41.3249 78.1511 42.4342 78.1554V78.1006C42.4448 78.0119 42.435 77.922 42.4056 77.8378C42.3763 77.7536 42.3282 77.6773 42.2651 77.615C42.202 77.5527 42.1256 77.5059 42.0418 77.4784C41.958 77.4508 41.8691 77.4432 41.7819 77.4561C41.5177 77.4564 41.2582 77.5276 41.0299 77.6625L40.9136 77.3298C41.2012 77.1612 41.5287 77.0753 41.8609 77.0813C42.011 77.0645 42.1628 77.0826 42.305 77.1343C42.4471 77.186 42.5758 77.2698 42.6811 77.3795C42.7865 77.4891 42.8658 77.6217 42.913 77.7671C42.9602 77.9125 42.9741 78.0669 42.9536 78.2185V79.2631C42.9498 79.4875 42.9665 79.7117 43.0035 79.9329L42.509 79.9286ZM42.4301 78.505C41.8609 78.505 41.2127 78.5892 41.2127 79.1326C41.2088 79.1987 41.2191 79.2648 41.2428 79.3265C41.2665 79.3882 41.3031 79.444 41.3501 79.49C41.397 79.536 41.4533 79.5712 41.5149 79.5931C41.5765 79.615 41.6421 79.6231 41.7071 79.6169C41.8565 79.6224 42.0038 79.5802 42.1282 79.4963C42.2527 79.4124 42.3481 79.2911 42.401 79.1494C42.4187 79.0979 42.4285 79.0439 42.4301 78.9893V78.505Z" fill="white"/>
<path d="M44.5695 75.8384H44.0464V79.9283H44.5695V75.8384Z" fill="white"/>
<path d="M47.5282 78.6275C47.5211 78.7594 47.5421 78.8912 47.5898 79.0141C47.6375 79.137 47.7107 79.248 47.8046 79.3395C47.8984 79.4311 48.0107 79.501 48.1336 79.5446C48.2566 79.5882 48.3874 79.6044 48.5171 79.5921C48.7898 79.6001 49.0613 79.5513 49.3148 79.4489L49.4021 79.8111C49.0983 79.9335 48.7732 79.9922 48.4464 79.9838C48.2591 80.0006 48.0703 79.9761 47.8932 79.9121C47.716 79.848 47.5546 79.7458 47.42 79.6126C47.2855 79.4794 47.1809 79.3182 47.1135 79.1402C47.0461 78.9622 47.0175 78.7715 47.0296 78.5812C47.0123 78.3907 47.0343 78.1986 47.0943 78.0172C47.1542 77.8358 47.2508 77.6691 47.3778 77.5276C47.5049 77.3861 47.6596 77.273 47.8321 77.1955C48.0047 77.118 48.1912 77.0778 48.3799 77.0775C48.5455 77.0755 48.7096 77.1089 48.8616 77.1755C49.0136 77.2421 49.1501 77.3403 49.2622 77.4639C49.3743 77.5874 49.4594 77.7335 49.5122 77.8926C49.5649 78.0518 49.584 78.2203 49.5683 78.3874C49.5743 78.4673 49.5743 78.5476 49.5683 78.6275H47.5282ZM49.0655 78.2611C49.078 78.1573 49.0684 78.0521 49.0374 77.9524C49.0064 77.8527 48.9548 77.7608 48.8859 77.683C48.817 77.6052 48.7326 77.5433 48.6381 77.5013C48.5437 77.4594 48.4415 77.4383 48.3384 77.4397C48.1259 77.4461 47.9239 77.5348 47.774 77.6876C47.624 77.8404 47.5376 78.0456 47.5324 78.2611H49.0655Z" fill="white"/>
<path d="M50.4075 79.4067C50.6188 79.5307 50.8574 79.5988 51.1014 79.6047C51.4795 79.6047 51.6582 79.4235 51.6582 79.1835C51.6582 78.9434 51.5128 78.8086 51.1222 78.6696C50.607 78.4927 50.3619 78.2147 50.3619 77.8819C50.3619 77.4312 50.7358 77.0648 51.3549 77.0648C51.6021 77.0623 51.8461 77.1216 52.0654 77.2375L51.9324 77.6039C51.7532 77.4986 51.5496 77.4434 51.3424 77.4439C51.0349 77.4439 50.8604 77.6166 50.8604 77.823C50.8604 78.0293 51.0349 78.1599 51.4089 78.2947C51.9116 78.48 52.1651 78.7159 52.1651 79.1371C52.1651 79.6257 51.7745 79.9795 51.089 79.9795C50.8077 79.9841 50.5296 79.9191 50.2787 79.79L50.4075 79.4067Z" fill="white"/>
<path d="M53.7315 76.3401V77.1404H54.4835V77.5237H53.7315V79.0274C53.7315 79.3728 53.8312 79.5708 54.1262 79.5708C54.2283 79.5722 54.3301 79.5608 54.4295 79.5371L54.4503 79.9162C54.3014 79.9647 54.1454 79.9875 53.9891 79.9835C53.8851 79.9894 53.781 79.9737 53.6831 79.9375C53.5853 79.9013 53.4957 79.8453 53.4198 79.7729C53.2644 79.5646 53.1931 79.304 53.2204 79.0443V77.5237H52.7717V77.1404H53.2204V76.458L53.7315 76.3401Z" fill="white"/>
<path d="M56.9266 79.9284L56.885 79.5746C56.7804 79.7091 56.6463 79.8171 56.4935 79.8902C56.3406 79.9633 56.1731 79.9994 56.0042 79.9958C55.8936 80.0062 55.7821 79.9934 55.6766 79.9581C55.5712 79.9228 55.474 79.8658 55.3913 79.7907C55.3086 79.7156 55.2421 79.6239 55.196 79.5215C55.1499 79.419 55.1252 79.3081 55.1234 79.1955C55.1234 78.5216 55.7424 78.1509 56.856 78.1551V78.1003C56.8658 78.0114 56.8553 77.9215 56.8255 77.8373C56.7956 77.7531 56.7471 77.677 56.6838 77.6148C56.6204 77.5525 56.5438 77.5059 56.4598 77.4783C56.3759 77.4508 56.2868 77.4431 56.1995 77.4559C55.9365 77.4561 55.6784 77.5273 55.4516 77.6623L55.3311 77.3295C55.619 77.1616 55.9463 77.0757 56.2784 77.081C56.4288 77.0635 56.5812 77.0811 56.7239 77.1325C56.8665 77.1839 56.9957 77.2676 57.1016 77.3774C57.2074 77.4871 57.2871 77.6199 57.3345 77.7657C57.382 77.9114 57.396 78.0662 57.3753 78.2183V79.2629C57.3703 79.4871 57.3856 79.7113 57.421 79.9326L56.9266 79.9284ZM56.8518 78.5047C56.2784 78.5047 55.6303 78.589 55.6303 79.1323C55.6271 79.1982 55.6378 79.2641 55.6618 79.3254C55.6857 79.3868 55.7223 79.4423 55.7691 79.4881C55.816 79.534 55.8719 79.5692 55.9332 79.5914C55.9945 79.6135 56.0598 79.6222 56.1247 79.6167C56.2746 79.6224 56.4225 79.5803 56.5477 79.4965C56.6729 79.4126 56.7691 79.2912 56.8227 79.1492C56.8404 79.0976 56.8502 79.0436 56.8518 78.9891V78.5047Z" fill="white"/>
<path d="M59.0705 76.3401V77.1404H59.8226V77.5237H59.0705V79.0274C59.0705 79.3728 59.1744 79.5708 59.4652 79.5708C59.5673 79.5722 59.6692 79.5608 59.7685 79.5371L59.7935 79.9162C59.6431 79.9647 59.4859 79.9875 59.3281 79.9835C59.2247 79.9898 59.1211 79.9743 59.0239 79.9381C58.9266 79.9018 58.8378 79.8456 58.763 79.7729C58.6042 79.5662 58.5312 79.3048 58.5594 79.0443V77.5237H58.1149V77.1404H58.5594V76.458L59.0705 76.3401Z" fill="white"/>
<path d="M60.9278 78.6276C60.9207 78.7594 60.9417 78.8913 60.9894 79.0142C61.0371 79.137 61.1104 79.248 61.2042 79.3396C61.2981 79.4311 61.4103 79.5011 61.5333 79.5447C61.6562 79.5883 61.787 79.6045 61.9167 79.5921C62.1895 79.6005 62.4611 79.5517 62.7145 79.4489L62.8059 79.8112C62.5005 79.933 62.1742 79.9917 61.8461 79.9839C61.6587 80.0007 61.47 79.9762 61.2928 79.9121C61.1157 79.848 60.9543 79.7459 60.8197 79.6127C60.6851 79.4794 60.5806 79.3183 60.5132 79.1403C60.4458 78.9622 60.4171 78.7715 60.4293 78.5812C60.4119 78.3907 60.434 78.1987 60.4939 78.0173C60.5539 77.8359 60.6505 77.6691 60.7775 77.5277C60.9045 77.3862 61.0592 77.2731 61.2318 77.1956C61.4043 77.1181 61.5909 77.0779 61.7796 77.0775C61.9455 77.075 62.1101 77.1079 62.2626 77.1743C62.4151 77.2406 62.5521 77.3387 62.6646 77.4624C62.7771 77.586 62.8627 77.7323 62.9157 77.8917C62.9686 78.0511 62.9879 78.22 62.9721 78.3875C62.9721 78.4928 62.9721 78.5728 62.9721 78.6276H60.9278ZM62.4652 78.2611C62.4776 78.1574 62.468 78.0521 62.4371 77.9524C62.4061 77.8527 62.3544 77.7609 62.2856 77.6831C62.2167 77.6053 62.1322 77.5433 62.0378 77.5014C61.9434 77.4594 61.8412 77.4384 61.7381 77.4398C61.5263 77.4472 61.3253 77.5364 61.1763 77.6891C61.0272 77.8418 60.9413 78.0464 60.9362 78.2611H62.4652Z" fill="white"/>
</svg>
