<svg width="28" height="28" fill="none" xmlns="http://www.w3.org/2000/svg"><g clip-path="url(#clip0_187_3649)"><path d="M14 28c7.732 0 14-6.268 14-14S21.732 0 14 0 0 6.268 0 14s6.268 14 14 14z" fill="#C13584"/><path d="M14 8.261c1.87 0 2.09.007 2.829.041.682.031 1.053.145 1.3.241.326.127.56.279.804.524.245.245.397.478.524.805.096.246.21.617.24 1.3.035.737.042.959.042 2.828 0 1.87-.007 2.09-.041 2.829-.031.682-.145 1.053-.241 1.3a2.17 2.17 0 01-.524.804 2.168 2.168 0 01-.805.524c-.246.096-.617.21-1.3.24-.737.035-.959.042-2.828.042-1.87 0-2.09-.008-2.829-.041-.682-.031-1.053-.145-1.3-.241a2.167 2.167 0 01-.804-.524 2.169 2.169 0 01-.524-.805c-.096-.246-.21-.617-.24-1.3-.035-.738-.042-.959-.042-2.828 0-1.87.007-2.09.041-2.829.031-.682.145-1.053.241-1.3.127-.326.279-.56.524-.804.245-.245.478-.397.805-.524.246-.096.617-.21 1.3-.24.737-.035.959-.042 2.828-.042zM14 7c-1.901 0-2.14.008-2.886.042-.745.034-1.254.152-1.7.325a3.43 3.43 0 00-1.24.808c-.388.389-.628.78-.806 1.24-.174.445-.292.954-.326 1.699C7.008 11.86 7 12.099 7 14c0 1.901.008 2.14.042 2.886.034.745.152 1.254.325 1.7.18.46.419.85.808 1.24.389.388.78.628 1.24.806.445.173.954.292 1.699.326.746.034.985.042 2.886.042 1.901 0 2.14-.008 2.886-.042.745-.034 1.254-.152 1.7-.326a3.43 3.43 0 001.24-.807c.388-.39.628-.78.806-1.24.174-.445.292-.954.326-1.699.034-.747.042-.985.042-2.886 0-1.901-.008-2.14-.042-2.886-.034-.745-.152-1.254-.325-1.7a3.432 3.432 0 00-.808-1.24 3.43 3.43 0 00-1.24-.806c-.445-.174-.954-.292-1.699-.326C16.14 7.008 15.901 7 14 7z" fill="#fff"/><path d="M14.003 10.409a3.594 3.594 0 100 7.189 3.594 3.594 0 000-7.19zm0 5.928a2.333 2.333 0 110-4.667 2.333 2.333 0 010 4.667zm4.577-6.072a.84.84 0 11-1.68 0 .84.84 0 011.68 0z" fill="#fff"/></g><defs><clipPath id="clip0_187_3649"><path fill="#fff" d="M0 0h28v28H0z"/></clipPath></defs></svg>