<svg width="28" height="28" fill="none" xmlns="http://www.w3.org/2000/svg"><g clip-path="url(#clip0_187_3644)"><circle cx="13.417" cy="13.417" r="11.083" fill="#fff"/><path fill-rule="evenodd" clip-rule="evenodd" d="M13.996 0C6.278 0 0 6.28 0 14c0 3.062.987 5.901 2.666 8.206L.92 27.407l5.382-1.72A13.889 13.889 0 0014.004 28C21.722 28 28 21.72 28 14S21.722 0 14.004 0h-.008zm-3.909 7.111c-.271-.65-.477-.674-.888-.691a7.904 7.904 0 00-.469-.016c-.535 0-1.094.156-1.432.502-.411.42-1.432 1.399-1.432 3.407s1.465 3.95 1.662 4.222c.206.272 2.856 4.453 6.97 6.157 3.217 1.333 4.171 1.21 4.904 1.053 1.07-.23 2.41-1.02 2.748-1.975.337-.955.337-1.77.239-1.943-.1-.173-.37-.271-.782-.477-.411-.206-2.411-1.194-2.79-1.325-.37-.14-.724-.09-1.003.304-.395.552-.782 1.112-1.095 1.449-.247.263-.65.296-.987.156-.453-.189-1.72-.634-3.283-2.025-1.21-1.078-2.032-2.419-2.27-2.822-.24-.412-.026-.65.163-.873.206-.255.404-.436.61-.675.205-.238.32-.362.452-.642.14-.271.041-.551-.058-.757-.098-.206-.921-2.214-1.258-3.029z" fill="#67C15E"/></g><defs><clipPath id="clip0_187_3644"><path fill="#fff" d="M0 0h28v28H0z"/></clipPath></defs></svg>